<svg width="464" height="464" viewBox="0 0 464 464" fill="none" xmlns="http://www.w3.org/2000/svg">
<path d="M240.294 15.4142L246.167 15.698L246.067 17.7656L240.194 17.4818L239.881 23.9543C239.848 24.6535 239.87 25.2252 239.949 25.6695C240.027 26.1138 240.17 26.4811 240.376 26.7714C240.603 27.0427 240.894 27.237 241.249 27.3542C241.604 27.4715 242.041 27.5427 242.56 27.5678C243.279 27.6025 243.861 27.5706 244.307 27.472C244.752 27.3733 245.179 27.2338 245.588 27.0533L245.847 29.1683C245.561 29.2746 245.104 29.4127 244.475 29.5825C243.866 29.7534 243.112 29.817 242.213 29.7736C241.174 29.7234 240.331 29.5625 239.684 29.291C239.036 29.0194 238.534 28.6347 238.177 28.1369C237.841 27.6401 237.62 27.0387 237.514 26.3328C237.409 25.6069 237.379 24.7745 237.424 23.8356L237.737 17.3631L234.8 17.2212L234.9 15.1536L237.837 15.2955L238.025 11.4001L240.502 11.0993L240.294 15.4142Z" fill="#FFFBE2"/>
<path d="M262.28 17.0404C264.14 17.3193 265.486 18.1178 266.32 19.4361C267.156 20.7345 267.398 22.5606 267.045 24.9143L266.916 25.7746L257.066 24.2973C256.952 25.7362 257.253 26.8937 257.971 27.7699C258.712 28.6293 259.844 29.1732 261.367 29.4016C262.237 29.5321 262.989 29.5742 263.623 29.5277C264.257 29.4812 264.744 29.4026 265.084 29.2918L265.099 31.4175C264.778 31.5313 264.219 31.6193 263.421 31.6816C262.623 31.7439 261.739 31.7024 260.77 31.557C259.584 31.379 258.562 31.0438 257.706 30.5513C256.872 30.042 256.206 29.4264 255.707 28.7045C255.209 27.9825 254.877 27.1642 254.711 26.2494C254.547 25.3149 254.543 24.3334 254.697 23.3049C254.881 22.0786 255.229 21.0387 255.741 20.1853C256.254 19.3318 256.861 18.6544 257.563 18.153C258.265 17.6516 259.024 17.3104 259.84 17.1294C260.656 16.9484 261.469 16.9188 262.28 17.0404ZM264.722 23.4131C264.897 22.2461 264.728 21.2804 264.216 20.516C263.707 19.7318 262.948 19.264 261.939 19.1127C261.366 19.0267 260.825 19.0569 260.318 19.2032C259.83 19.3526 259.392 19.58 259.002 19.8856C258.612 20.1912 258.285 20.5566 258.019 20.9818C257.753 21.4071 257.554 21.8526 257.424 22.3184L264.722 23.4131Z" fill="#FFFBE2"/>
<path d="M275.512 26.6465C275.82 25.4247 276.28 24.4165 276.893 23.6221C277.505 22.8277 278.224 22.225 279.05 21.8142C279.875 21.4033 280.768 21.1745 281.729 21.1277C282.713 21.0664 283.72 21.1652 284.748 21.4241C285.407 21.5902 286.045 21.8023 286.66 22.0605C287.3 22.3042 287.959 22.6352 288.637 23.0535L287.564 24.9798C286.983 24.5859 286.428 24.2914 285.9 24.0964C285.396 23.887 284.872 23.7138 284.329 23.5771C283.631 23.4012 282.947 23.3321 282.278 23.3697C281.613 23.3879 280.997 23.5421 280.429 23.8321C279.885 24.1076 279.397 24.5312 278.964 25.1028C278.536 25.655 278.21 26.3772 277.985 27.2694C277.77 28.1227 277.711 28.8914 277.806 29.5756C277.907 30.2403 278.129 30.8325 278.473 31.3521C278.84 31.8572 279.32 32.2874 279.911 32.6425C280.502 32.9977 281.186 33.2729 281.961 33.4683C282.582 33.6247 283.181 33.7446 283.758 33.828C284.359 33.897 285.029 33.9006 285.766 33.8389L285.61 35.9341C284.867 36.0153 284.135 36.0164 283.412 35.9375C282.685 35.878 281.914 35.7457 281.099 35.5405C280.013 35.2669 279.051 34.8699 278.213 34.3494C277.399 33.8144 276.735 33.1729 276.222 32.425C275.729 31.6819 275.408 30.8276 275.259 29.8621C275.135 28.882 275.219 27.8102 275.512 26.6465Z" fill="#FFFBE2"/>
<path d="M293.949 38.7127L300.901 19.5655L303.385 20.0204L300.969 26.6754C301.399 26.6615 301.863 26.7023 302.36 26.7977C302.864 26.8744 303.342 26.9946 303.793 27.1584C304.79 27.5201 305.562 27.9708 306.111 28.5105C306.685 29.0382 307.074 29.6369 307.278 30.3066C307.482 30.9763 307.535 31.7085 307.438 32.5031C307.341 33.2977 307.132 34.1368 306.812 35.0203L304.129 42.4085L301.817 41.569L304.315 34.6884C304.902 33.0717 305.089 31.8524 304.877 31.0306C304.671 30.1901 303.986 29.5582 302.82 29.135C302.332 28.9576 301.832 28.8399 301.321 28.7821C300.835 28.7123 300.472 28.6868 300.231 28.7058L296.29 39.5624L293.949 38.7127Z" fill="#FFFBE2"/>
<path d="M318.628 33.6201C319.535 33.8102 320.411 34.0412 321.257 34.3129C322.12 34.5933 322.904 34.9019 323.607 35.2386C325.285 36.0418 326.341 37.0792 326.774 38.351C327.225 39.6314 326.993 41.2277 326.078 43.1399L322.555 50.5L320.336 49.4378L323.665 42.4836C324.053 41.6718 324.296 40.9788 324.394 40.4046C324.491 39.8304 324.47 39.3433 324.329 38.9431C324.214 38.5336 323.994 38.1841 323.667 37.8945C323.358 37.6135 322.987 37.3694 322.554 37.1622C322.193 36.9894 321.792 36.8308 321.351 36.6863C320.937 36.5324 320.523 36.4009 320.11 36.2917L315.032 46.899L312.786 45.8238L318.628 33.6201Z" fill="#FFFBE2"/>
<path d="M342.771 43.2035C342.327 42.9326 342.037 42.5445 341.9 42.0393C341.763 41.534 341.857 41.0168 342.18 40.4876C342.503 39.9584 342.92 39.6391 343.432 39.5298C343.944 39.4205 344.422 39.5013 344.866 39.7722C345.327 40.0535 345.617 40.4416 345.737 40.9364C345.873 41.4417 345.78 41.9589 345.457 42.4881C345.134 43.0173 344.717 43.3366 344.205 43.4459C343.71 43.5657 343.232 43.4849 342.771 43.2035ZM340.03 46.4859L336.598 44.3916L337.677 42.6247L343.208 46.0006L338.754 53.2987C338.035 54.4766 337.712 55.3694 337.787 55.9771C337.871 56.5677 338.238 57.061 338.887 57.4569C339.382 57.7591 339.871 57.9755 340.353 58.106C340.853 58.247 341.264 58.3222 341.586 58.3315L340.8 60.3115C340.666 60.3002 340.479 60.2799 340.239 60.2507C340.01 60.2043 339.746 60.1372 339.449 60.0492C339.168 59.9716 338.858 59.8646 338.52 59.7283C338.198 59.6024 337.875 59.4404 337.551 59.2424C336.8 58.784 336.239 58.3012 335.869 57.7942C335.499 57.2872 335.286 56.735 335.228 56.1378C335.188 55.5509 335.291 54.9223 335.536 54.2519C335.791 53.5643 336.164 52.8194 336.654 52.0171L340.03 46.4859Z" fill="#FFFBE2"/>
<path d="M351.563 59.5365C352.321 58.5304 353.137 57.7805 354.01 57.2867C354.884 56.793 355.78 56.5173 356.701 56.4597C357.621 56.402 358.532 56.5384 359.436 56.8687C360.367 57.1951 361.255 57.6774 362.102 58.3156C362.645 58.7249 363.15 59.1682 363.616 59.6454C364.111 60.1187 364.59 60.68 365.052 61.3291L363.315 62.6867C362.932 62.0977 362.535 61.6107 362.124 61.2256C361.741 60.8366 361.326 60.4736 360.879 60.1364C360.304 59.7029 359.701 59.3734 359.07 59.1478C358.45 58.9062 357.823 58.8086 357.186 58.8549C356.578 58.8974 355.964 59.0978 355.343 59.4562C354.734 59.7986 354.153 60.3371 353.599 61.0717C353.069 61.7743 352.715 62.4594 352.537 63.127C352.372 63.7786 352.346 64.4105 352.461 65.0228C352.603 65.6312 352.877 66.2139 353.284 66.7709C353.691 67.328 354.213 67.8473 354.852 68.329C355.363 68.7143 355.868 69.0576 356.367 69.3588C356.895 69.6562 357.51 69.9198 358.213 70.1496L357.255 72.0191C356.539 71.8053 355.864 71.5216 355.229 71.1679C354.582 70.8303 353.923 70.4086 353.252 69.9028C352.358 69.2285 351.626 68.4887 351.056 67.6832C350.514 66.8738 350.152 66.0249 349.97 65.1364C349.805 64.26 349.841 63.3481 350.079 62.4007C350.346 61.4493 350.84 60.4946 351.563 59.5365Z" fill="#FFFBE2"/>
<path d="M369.095 80.2384C369.551 80.6584 369.969 81.0163 370.349 81.312C370.744 81.6212 371.08 81.8622 371.356 82.0348L374.16 78.9893C373.992 78.6989 373.76 78.3759 373.462 78.0202C373.179 77.678 372.853 77.3376 372.486 76.9989C372.147 76.6873 371.789 76.4119 371.411 76.1727C371.047 75.9188 370.679 75.7429 370.307 75.645C369.935 75.5471 369.566 75.534 369.201 75.6057C368.849 75.6626 368.525 75.8529 368.227 76.1766C367.617 76.8387 367.411 77.5053 367.608 78.1766C367.834 78.8467 368.33 79.534 369.095 80.2384ZM377.372 70.8951C378.137 71.5996 378.689 72.2846 379.028 72.95C379.381 73.629 379.564 74.2867 379.576 74.9231C379.588 75.5596 379.437 76.1815 379.122 76.7889C378.808 77.3964 378.386 77.987 377.858 78.5608L371.965 84.9608C371.47 84.6415 370.822 84.2082 370.021 83.6609C369.235 83.1272 368.474 82.5216 367.738 81.8442C367.179 81.3294 366.682 80.7767 366.248 80.186C365.799 79.61 365.477 79.0146 365.282 78.3999C365.101 77.7704 365.081 77.1272 365.224 76.4703C365.367 75.8133 365.743 75.1538 366.353 74.4917C366.894 73.9032 367.473 73.5254 368.089 73.3585C368.733 73.1904 369.369 73.1642 369.997 73.2799C370.639 73.4091 371.265 73.6593 371.875 74.0305C372.513 74.4005 373.097 74.8293 373.626 75.317C374.347 75.9809 374.979 76.7121 375.521 77.5106L375.989 77.0031C376.273 76.6941 376.508 76.366 376.691 76.0187C376.903 75.6702 377.022 75.2903 377.048 74.8787C377.088 74.4808 377.007 74.0665 376.805 73.6361C376.632 73.2045 376.295 72.7583 375.795 72.2977C375.162 71.7152 374.57 71.2513 374.018 70.906C373.466 70.5608 373.024 70.3172 372.693 70.1751L373.854 68.4712C374.212 68.5838 374.719 68.8602 375.374 69.3002C376.044 69.7539 376.71 70.2855 377.372 70.8951Z" fill="#FFFBE2"/>
<path d="M383.547 97.8338C382.961 97.1771 382.565 96.5524 382.358 95.9599C382.151 95.3673 382.113 94.7844 382.245 94.2111C382.377 93.6379 382.657 93.066 383.087 92.4956C383.531 91.9118 384.103 91.307 384.805 90.6813L394.633 81.9142L391.957 78.9143L393.524 77.5164L397.837 82.3519L386.443 92.517C385.92 92.983 385.521 93.3923 385.246 93.7449C384.985 94.1124 384.809 94.4565 384.72 94.7772C384.659 95.0996 384.685 95.3985 384.796 95.674C384.908 95.9495 385.091 96.2291 385.343 96.5126C385.73 96.9454 386.141 97.3018 386.579 97.5817C387.016 97.8616 387.387 98.0528 387.693 98.1552L386.366 99.8218C386.241 99.7722 386.068 99.6986 385.847 99.601C385.641 99.4901 385.408 99.3493 385.149 99.1787C384.889 99.0081 384.618 98.8085 384.333 98.5798C384.062 98.366 383.8 98.1173 383.547 97.8338Z" fill="#FFFBE2"/>
<path d="M407.63 127.183C407.942 127.718 408.236 128.183 408.513 128.578C408.799 128.99 409.049 129.319 409.262 129.565L412.838 127.48C412.764 127.153 412.636 126.775 412.456 126.348C412.287 125.938 412.076 125.516 411.824 125.084C411.592 124.687 411.331 124.319 411.04 123.979C410.767 123.629 410.467 123.352 410.14 123.149C409.813 122.946 409.465 122.825 409.095 122.786C408.742 122.737 408.376 122.824 407.996 123.045C407.218 123.499 406.825 124.075 406.816 124.775C406.835 125.482 407.106 126.284 407.63 127.183ZM418.29 120.689C418.814 121.588 419.14 122.405 419.268 123.14C419.406 123.893 419.387 124.576 419.211 125.187C419.036 125.799 418.708 126.349 418.228 126.837C417.749 127.325 417.172 127.765 416.499 128.158L408.983 132.541C408.604 132.09 408.113 131.485 407.508 130.726C406.914 129.985 406.365 129.182 405.861 128.318C405.478 127.662 405.166 126.987 404.924 126.295C404.665 125.612 404.533 124.948 404.527 124.304C404.539 123.649 404.71 123.028 405.039 122.442C405.369 121.856 405.923 121.337 406.7 120.883C407.391 120.48 408.056 120.29 408.694 120.312C409.359 120.34 409.974 120.503 410.54 120.798C411.116 121.11 411.64 121.534 412.114 122.068C412.615 122.609 413.047 123.191 413.409 123.813C413.903 124.659 414.291 125.544 414.575 126.467L415.171 126.119C415.534 125.908 415.854 125.663 416.132 125.385C416.437 125.115 416.663 124.787 416.808 124.401C416.964 124.032 417.008 123.613 416.942 123.142C416.903 122.678 416.713 122.153 416.37 121.565C415.937 120.823 415.507 120.205 415.081 119.712C414.655 119.22 414.305 118.857 414.03 118.624L415.641 117.337C415.951 117.55 416.354 117.963 416.85 118.577C417.357 119.208 417.837 119.912 418.29 120.689Z" fill="#FFFBE2"/>
<path d="M413.713 141.808L425.69 136.332C427.175 137.897 428.35 139.625 429.215 141.516C429.481 142.098 429.707 142.666 429.894 143.218C430.099 143.762 430.274 144.386 430.419 145.089L428.24 145.59C428.138 144.933 428.001 144.369 427.83 143.898C427.685 143.436 427.491 142.942 427.25 142.414C426.743 141.305 426.073 140.248 425.24 139.243L414.735 144.045L413.713 141.808Z" fill="#FFFBE2"/>
<path d="M436.256 159.631L438.158 165.195L436.199 165.864L434.297 160.3L428.166 162.396C427.503 162.623 426.98 162.854 426.596 163.091C426.212 163.328 425.923 163.596 425.729 163.895C425.561 164.206 425.488 164.548 425.509 164.921C425.531 165.294 425.626 165.726 425.794 166.219C426.027 166.9 426.272 167.429 426.527 167.807C426.783 168.184 427.071 168.53 427.389 168.844L425.519 169.864C425.314 169.638 425.017 169.263 424.628 168.742C424.244 168.238 423.907 167.561 423.616 166.709C423.28 165.725 423.118 164.882 423.132 164.18C423.146 163.478 423.318 162.869 423.649 162.355C423.987 161.859 424.465 161.431 425.082 161.072C425.718 160.707 426.48 160.372 427.37 160.068L433.502 157.972L432.551 155.191L434.509 154.521L435.46 157.303L439.151 156.042L440.344 158.233L436.256 159.631Z" fill="#FFFBE2"/>
<path d="M444.289 178.772C444.17 178.265 444.243 177.786 444.507 177.334C444.771 176.882 445.205 176.586 445.809 176.444C446.412 176.303 446.933 176.377 447.37 176.665C447.807 176.953 448.085 177.35 448.203 177.856C448.326 178.382 448.253 178.861 447.984 179.294C447.72 179.746 447.287 180.042 446.683 180.183C446.079 180.325 445.559 180.251 445.122 179.963C444.689 179.695 444.411 179.297 444.289 178.772ZM440.026 179.121L439.111 175.207L441.126 174.736L442.602 181.045L434.277 182.992C432.933 183.306 432.071 183.703 431.69 184.183C431.328 184.657 431.234 185.265 431.407 186.005C431.539 186.57 431.728 187.07 431.974 187.505C432.224 187.96 432.459 188.306 432.678 188.542L430.715 189.371C430.63 189.268 430.513 189.12 430.366 188.929C430.238 188.733 430.1 188.498 429.954 188.224C429.813 187.969 429.672 187.674 429.531 187.337C429.395 187.02 429.284 186.676 429.198 186.306C428.997 185.449 428.948 184.711 429.05 184.091C429.151 183.472 429.395 182.932 429.78 182.472C430.17 182.032 430.69 181.664 431.34 181.368C432.009 181.068 432.801 180.811 433.716 180.597L440.026 179.121Z" fill="#FFFBE2"/>
<path d="M436.561 205.953C437.056 205.888 437.436 205.626 437.698 205.168C437.964 204.73 438.175 204.188 438.333 203.542C438.493 202.916 438.635 202.232 438.76 201.49C438.904 200.744 439.105 200.043 439.362 199.384C439.621 198.745 439.971 198.184 440.413 197.703C440.856 197.242 441.475 196.959 442.268 196.855C443.379 196.71 444.359 197.035 445.21 197.832C446.083 198.645 446.645 200.014 446.897 201.937C446.995 202.691 447.037 203.472 447.022 204.281C447.029 205.107 446.981 205.819 446.878 206.418L444.618 206.26C444.677 206.091 444.728 205.862 444.771 205.574C444.834 205.283 444.871 204.956 444.884 204.591C444.917 204.224 444.926 203.829 444.911 203.408C444.899 203.006 444.868 202.616 444.819 202.24C444.538 200.098 443.813 199.104 442.643 199.257C442.227 199.311 441.896 199.556 441.65 199.992C441.427 200.445 441.237 200.994 441.079 201.64C440.922 202.286 440.761 202.983 440.596 203.73C440.452 204.475 440.241 205.179 439.965 205.84C439.688 206.501 439.318 207.064 438.854 207.528C438.413 208.01 437.806 208.301 437.032 208.402C435.783 208.566 434.748 208.207 433.926 207.326C433.125 206.443 432.587 204.95 432.312 202.848C432.187 201.896 432.152 201.013 432.207 200.199C432.262 199.385 432.401 198.6 432.625 197.845L434.918 198.029C434.692 198.764 434.519 199.523 434.399 200.305C434.302 201.105 434.311 201.941 434.425 202.813C434.718 205.054 435.43 206.101 436.561 205.953Z" fill="#FFFBE2"/>
<path d="M448.451 222.808L448.633 228.685L446.564 228.75L446.382 222.872L439.905 223.073C439.205 223.095 438.637 223.163 438.2 223.276C437.764 223.39 437.409 223.561 437.136 223.789C436.883 224.037 436.713 224.343 436.624 224.706C436.535 225.069 436.499 225.51 436.515 226.03C436.537 226.749 436.615 227.327 436.749 227.763C436.882 228.199 437.055 228.614 437.268 229.008L435.18 229.433C435.051 229.157 434.877 228.712 434.658 228.098C434.44 227.505 434.316 226.758 434.289 225.859C434.256 224.819 434.35 223.966 434.569 223.299C434.789 222.632 435.132 222.101 435.6 221.706C436.069 221.331 436.651 221.063 437.346 220.902C438.062 220.739 438.889 220.644 439.829 220.614L446.306 220.414L446.214 217.475L448.283 217.411L448.375 220.349L452.273 220.229L452.769 222.674L448.451 222.808Z" fill="#FFFBE2"/>
<path d="M453.149 265.918L452.768 268.197L427.203 263.922L427.584 261.643L453.149 265.918Z" fill="#FFFBE2"/>
<path d="M422.311 305.661C422.261 305.342 422.256 304.88 422.295 304.273C422.334 303.667 422.489 303.009 422.761 302.3C423.053 301.534 423.45 300.861 423.95 300.281C424.461 299.727 425.066 299.295 425.763 298.983C426.472 298.697 427.276 298.555 428.175 298.556C429.085 298.583 430.082 298.804 431.165 299.218C432.118 299.582 432.937 300.045 433.621 300.607C434.318 301.194 434.859 301.85 435.245 302.576C435.624 303.321 435.83 304.127 435.862 304.996C435.912 305.872 435.755 306.786 435.391 307.739C434.963 308.86 434.514 309.78 434.046 310.501C433.59 311.247 433.183 311.862 432.826 312.347L421.225 307.911C419.208 307.14 417.947 306.069 417.443 304.699C416.932 303.347 417.07 301.644 417.855 299.589C418.177 298.748 418.535 298.007 418.93 297.366C419.318 296.744 419.705 296.207 420.092 295.755L421.977 296.957C421.586 297.365 421.207 297.851 420.84 298.418C420.467 299.003 420.137 299.669 419.851 300.416C419.337 301.761 419.24 302.827 419.56 303.613C419.881 304.4 420.648 305.025 421.862 305.489L422.311 305.661ZM432.062 309.389C432.223 309.193 432.406 308.91 432.612 308.539C432.837 308.175 433.078 307.657 433.335 306.985C433.792 305.789 433.731 304.717 433.152 303.767C432.565 302.836 431.59 302.11 430.227 301.589C429.479 301.303 428.803 301.141 428.197 301.102C427.602 301.089 427.07 301.164 426.601 301.327C426.144 301.516 425.756 301.775 425.438 302.103C425.138 302.438 424.903 302.83 424.731 303.278C424.51 303.857 424.387 304.431 424.362 305C424.33 305.587 424.366 306.082 424.468 306.486L432.062 309.389Z" fill="#FFFBE2"/>
<path d="M415.71 321.967C415.431 322.521 415.201 323.021 415.021 323.468C414.832 323.932 414.692 324.321 414.602 324.633L418.299 326.496C418.532 326.256 418.779 325.943 419.04 325.56C419.291 325.194 419.529 324.787 419.754 324.341C419.961 323.93 420.128 323.51 420.255 323.081C420.399 322.661 420.467 322.259 420.46 321.874C420.452 321.49 420.364 321.132 420.195 320.8C420.044 320.478 419.772 320.218 419.379 320.02C418.575 319.615 417.877 319.599 417.286 319.973C416.703 320.374 416.178 321.038 415.71 321.967ZM426.963 327.369C426.495 328.297 425.987 329.016 425.44 329.524C424.884 330.05 424.302 330.406 423.693 330.592C423.084 330.778 422.444 330.803 421.774 330.666C421.104 330.53 420.42 330.286 419.724 329.935L411.954 326.021C412.126 325.458 412.365 324.716 412.672 323.796C412.97 322.893 413.344 321.995 413.794 321.102C414.136 320.424 414.532 319.794 414.981 319.214C415.412 318.625 415.896 318.153 416.434 317.797C416.99 317.45 417.603 317.255 418.274 317.212C418.945 317.17 419.682 317.351 420.486 317.756C421.2 318.116 421.722 318.569 422.051 319.116C422.39 319.689 422.589 320.293 422.65 320.929C422.701 321.582 422.632 322.252 422.442 322.941C422.261 323.656 422.008 324.334 421.684 324.977C421.243 325.853 420.713 326.66 420.094 327.401L420.71 327.711C421.085 327.9 421.465 328.036 421.849 328.117C422.242 328.226 422.64 328.236 423.043 328.148C423.437 328.078 423.813 327.887 424.172 327.575C424.539 327.29 424.876 326.843 425.182 326.236C425.569 325.468 425.853 324.771 426.034 324.146C426.215 323.52 426.328 323.029 426.374 322.671L428.331 323.321C428.321 323.697 428.194 324.26 427.95 325.01C427.697 325.779 427.368 326.565 426.963 327.369Z" fill="#FFFBE2"/>
<path d="M419.249 340.597C418.995 341.857 418.585 342.935 418.017 343.83C417.707 344.32 417.342 344.728 416.922 345.054C416.508 345.407 416.053 345.64 415.556 345.751C415.687 346.852 415.49 347.817 414.966 348.644C414.709 349.05 414.392 349.382 414.015 349.64C413.627 349.915 413.196 350.092 412.72 350.169C412.234 350.264 411.71 350.251 411.147 350.131C410.583 350.011 409.998 349.758 409.39 349.372L401.028 344.072L402.232 342.172L410.645 347.504C411.253 347.889 411.803 348.049 412.295 347.982C412.788 347.915 413.162 347.679 413.419 347.274C413.548 347.071 413.631 346.828 413.669 346.544C413.707 346.26 413.675 345.955 413.573 345.63C413.12 345.486 412.657 345.263 412.184 344.963L408.358 342.538L409.563 340.638L413.414 343.079C414.005 343.454 414.529 343.655 414.984 343.684C415.44 343.712 415.839 343.456 416.182 342.915C416.396 342.577 416.561 342.149 416.676 341.631L406.617 335.254L407.822 333.354L419.249 340.597Z" fill="#FFFBE2"/>
<path d="M404.102 364.197C402.945 365.679 401.587 366.459 400.029 366.536C398.487 366.626 396.778 365.939 394.903 364.474L394.217 363.938L400.347 356.088C399.151 355.281 397.995 354.974 396.879 355.169C395.766 355.391 394.736 356.109 393.788 357.323C393.246 358.016 392.84 358.65 392.569 359.225C392.297 359.8 392.126 360.263 392.055 360.613L390.197 359.581C390.256 359.246 390.454 358.716 390.792 357.99C391.131 357.265 391.601 356.516 392.204 355.743C392.943 354.798 393.737 354.073 394.587 353.57C395.441 353.094 396.304 352.817 397.178 352.738C398.052 352.659 398.928 352.772 399.806 353.077C400.7 353.395 401.557 353.874 402.376 354.514C403.354 355.277 404.088 356.091 404.579 356.957C405.07 357.823 405.362 358.685 405.453 359.543C405.544 360.401 405.468 361.229 405.224 362.029C404.981 362.828 404.607 363.551 404.102 364.197ZM397.352 363.189C398.282 363.916 399.206 364.244 400.124 364.174C401.057 364.116 401.837 363.685 402.465 362.881C402.822 362.424 403.062 361.938 403.184 361.425C403.293 360.927 403.311 360.433 403.237 359.943C403.162 359.454 403.005 358.989 402.766 358.548C402.526 358.107 402.236 357.716 401.895 357.373L397.352 363.189Z" fill="#FFFBE2"/>
<path d="M370.509 394.804C370.891 394.819 371.359 394.735 371.912 394.551C372.478 394.382 372.982 394.109 373.422 393.732C373.923 393.302 374.272 392.833 374.467 392.323C374.648 391.827 374.702 391.306 374.631 390.761C374.573 390.232 374.389 389.679 374.079 389.102C373.782 388.54 373.399 387.985 372.931 387.438C371.877 386.208 370.776 385.505 369.626 385.331C368.476 385.157 367.438 385.467 366.512 386.26C366.041 386.663 365.665 387.024 365.385 387.343C365.09 387.675 364.886 387.928 364.773 388.104L370.509 394.804ZM376.616 401.937L374.998 403.875L361.73 388.379C362.036 387.906 362.457 387.336 362.991 386.668C363.525 386 364.217 385.302 365.068 384.574C365.827 383.923 366.629 383.461 367.473 383.186C368.317 382.911 369.161 382.82 370.005 382.914C370.862 383.023 371.704 383.315 372.533 383.79C373.361 384.266 374.14 384.929 374.868 385.78C375.57 386.6 376.109 387.429 376.484 388.267C376.856 389.132 377.053 389.978 377.075 390.802C377.096 391.626 376.95 392.409 376.637 393.151C376.309 393.906 375.788 394.589 375.074 395.2C374.512 395.681 373.96 396.036 373.417 396.263C372.875 396.491 372.432 396.62 372.09 396.65L376.616 401.937Z" fill="#FFFBE2"/>
<path d="M357.725 408.929C356.184 410.006 354.657 410.352 353.145 409.969C351.645 409.602 350.213 408.443 348.85 406.492L348.352 405.778L356.518 400.075C355.612 398.952 354.596 398.319 353.473 398.177C352.344 398.063 351.148 398.447 349.885 399.329C349.164 399.832 348.589 400.319 348.161 400.789C347.733 401.259 347.433 401.651 347.263 401.965L345.79 400.433C345.944 400.13 346.289 399.681 346.826 399.087C347.362 398.493 348.032 397.915 348.836 397.354C349.82 396.667 350.792 396.207 351.752 395.976C352.707 395.772 353.614 395.761 354.473 395.942C355.331 396.123 356.135 396.488 356.885 397.038C357.646 397.604 358.325 398.314 358.92 399.166C359.63 400.183 360.093 401.177 360.308 402.149C360.523 403.121 360.548 404.03 360.384 404.877C360.219 405.724 359.903 406.494 359.435 407.186C358.967 407.879 358.397 408.46 357.725 408.929ZM351.569 405.983C352.245 406.951 353.031 407.536 353.929 407.738C354.838 407.957 355.711 407.775 356.547 407.191C357.023 406.858 357.394 406.465 357.662 406.01C357.913 405.566 358.075 405.099 358.147 404.609C358.22 404.119 358.207 403.629 358.107 403.137C358.008 402.645 357.845 402.186 357.62 401.758L351.569 405.983Z" fill="#FFFBE2"/>
<path d="M333.902 423.346C333.581 422.036 333.313 420.719 333.098 419.395C332.893 418.089 332.707 416.794 332.539 415.513C332.381 414.249 332.256 413.024 332.164 411.837C332.073 410.65 331.998 409.535 331.939 408.49L333.902 407.39C335.641 408.571 337.516 409.973 339.527 411.597C341.537 413.222 343.501 414.987 345.418 416.894L343.062 418.214C342.423 417.563 341.732 416.884 340.992 416.176C340.233 415.477 339.467 414.784 338.691 414.095C337.915 413.406 337.154 412.744 336.408 412.107C335.654 411.498 334.953 410.962 334.304 410.5C334.359 411.295 334.45 412.173 334.576 413.134C334.694 414.122 334.836 415.132 335.001 416.163C335.166 417.193 335.348 418.215 335.548 419.226C335.73 420.247 335.932 421.2 336.153 422.085L333.902 423.346Z" fill="#FFFBE2"/>
<path d="M303.694 444.066L301.496 444.775L293.535 420.108L295.734 419.399L303.694 444.066Z" fill="#FFFBE2"/>
<path d="M254.321 437.127C254.377 437.624 254.632 438.008 255.085 438.278C255.519 438.551 256.057 438.772 256.7 438.94C257.324 439.111 258.005 439.265 258.745 439.403C259.488 439.56 260.186 439.773 260.841 440.041C261.475 440.311 262.029 440.67 262.503 441.12C262.957 441.572 263.229 442.195 263.319 442.99C263.446 444.103 263.103 445.077 262.293 445.914C261.464 446.773 260.086 447.312 258.158 447.531C257.403 447.617 256.622 447.645 255.813 447.616C254.987 447.609 254.276 447.549 253.679 447.435L253.876 445.179C254.044 445.24 254.271 445.295 254.559 445.343C254.848 445.411 255.175 445.454 255.54 445.473C255.906 445.512 256.301 445.528 256.722 445.52C257.124 445.515 257.514 445.49 257.892 445.448C260.038 445.204 261.045 444.496 260.912 443.323C260.864 442.906 260.625 442.571 260.194 442.318C259.745 442.087 259.199 441.888 258.556 441.719C257.912 441.55 257.218 441.378 256.474 441.2C255.731 441.043 255.032 440.821 254.375 440.533C253.718 440.245 253.162 439.865 252.706 439.394C252.232 438.944 251.951 438.332 251.863 437.557C251.721 436.305 252.098 435.276 252.992 434.47C253.89 433.684 255.391 433.171 257.498 432.932C258.452 432.824 259.335 432.804 260.148 432.873C260.961 432.942 261.743 433.094 262.495 433.331L262.271 435.621C261.54 435.382 260.784 435.196 260.004 435.063C259.207 434.952 258.371 434.947 257.496 435.046C255.251 435.301 254.192 435.995 254.321 437.127Z" fill="#FFFBE2"/>
<path d="M230.659 441.849C230.644 440.749 230.79 439.747 231.097 438.843C231.385 437.959 231.804 437.193 232.355 436.545C232.906 435.897 233.569 435.388 234.344 435.017C235.119 434.666 235.967 434.484 236.887 434.472C237.787 434.459 238.629 434.617 239.414 434.946C240.179 435.296 240.846 435.787 241.414 436.419C241.983 437.051 242.434 437.805 242.766 438.68C243.079 439.576 243.243 440.574 243.258 441.673C243.273 442.773 243.137 443.775 242.85 444.679C242.542 445.584 242.113 446.35 241.562 446.978C241.011 447.625 240.358 448.125 239.602 448.475C238.827 448.846 237.99 449.038 237.09 449.05C236.17 449.063 235.318 448.895 234.533 448.546C233.748 448.217 233.071 447.736 232.503 447.104C231.934 446.492 231.493 445.738 231.181 444.842C230.848 443.947 230.674 442.949 230.659 441.849ZM233.209 441.814C233.231 443.393 233.588 444.629 234.281 445.519C234.973 446.429 235.9 446.877 237.06 446.86C238.2 446.844 239.103 446.372 239.77 445.442C240.418 444.533 240.73 443.289 240.708 441.709C240.686 440.149 240.339 438.914 239.666 438.003C238.974 437.113 238.058 436.675 236.918 436.691C235.758 436.708 234.844 437.17 234.177 438.08C233.51 439.009 233.187 440.254 233.209 441.814Z" fill="#FFFBE2"/>
<path d="M219.397 434.535L218.389 446.342L221.319 446.592L221.143 448.655L218.213 448.405L218.106 449.66C218.015 450.736 217.789 451.61 217.431 452.282C217.071 452.974 216.633 453.519 216.117 453.917C215.582 454.313 214.987 454.573 214.335 454.698C213.662 454.821 212.966 454.852 212.249 454.791C211.532 454.73 210.821 454.589 210.117 454.368C209.394 454.146 208.722 453.898 208.103 453.624L208.733 451.54C209.152 451.797 209.684 452.033 210.328 452.248C210.972 452.464 211.633 452.601 212.311 452.658C212.729 452.694 213.133 452.668 213.521 452.581C213.889 452.512 214.224 452.35 214.526 452.095C214.828 451.86 215.077 451.52 215.276 451.075C215.473 450.65 215.6 450.099 215.658 449.421L215.762 448.196L210.173 447.719L210.349 445.656L215.938 446.133L216.946 434.326L219.397 434.535Z" fill="#FFFBE2"/>
<path d="M194.453 445.557L188.67 444.49L189.046 442.454L194.828 443.522L196.005 437.15C196.132 436.461 196.186 435.892 196.168 435.441C196.15 434.99 196.058 434.607 195.892 434.292C195.703 433.992 195.441 433.761 195.105 433.597C194.769 433.433 194.346 433.304 193.834 433.21C193.126 433.079 192.545 433.033 192.09 433.071C191.636 433.109 191.194 433.19 190.764 433.314L190.792 431.184C191.089 431.117 191.56 431.041 192.206 430.957C192.833 430.869 193.588 430.907 194.473 431.07C195.496 431.259 196.31 431.532 196.916 431.887C197.521 432.243 197.967 432.692 198.254 433.233C198.52 433.77 198.659 434.396 198.67 435.11C198.677 435.843 198.595 436.672 198.424 437.596L197.248 443.969L200.139 444.502L199.763 446.538L196.872 446.004L196.164 449.839L193.668 449.806L194.453 445.557Z" fill="#FFFBE2"/>
<path d="M174.44 426.6C174.537 427.337 174.613 428.005 174.668 428.604C174.722 429.203 174.776 429.803 174.831 430.402C174.866 430.996 174.905 431.611 174.948 432.249C174.966 432.9 175.001 433.639 175.051 434.466C175.538 433.796 175.974 433.194 176.359 432.66C176.738 432.146 177.112 431.651 177.48 431.175C177.829 430.693 178.197 430.217 178.584 429.747C178.952 429.271 179.376 428.749 179.854 428.18L181.64 428.701C181.488 431.219 181.259 433.684 180.951 436.094C180.619 438.518 180.259 440.715 179.872 442.686L177.625 442.03C177.786 441.265 177.944 440.509 178.1 439.762C178.23 439.029 178.362 438.255 178.496 437.44C178.629 436.625 178.773 435.74 178.927 434.785C179.061 433.824 179.22 432.745 179.402 431.548C178.871 432.227 178.416 432.823 178.037 433.337C177.657 433.852 177.306 434.343 176.982 434.811C176.658 435.279 176.34 435.759 176.03 436.252C175.7 436.739 175.341 437.291 174.953 437.907L173.168 437.386C173.172 436.658 173.176 436.003 173.179 435.42C173.182 434.838 173.173 434.262 173.151 433.693C173.13 433.125 173.107 432.524 173.083 431.892C173.059 431.26 173.013 430.528 172.943 429.695C172.462 430.7 172.023 431.635 171.625 432.498C171.227 433.361 170.866 434.172 170.54 434.931C170.209 435.71 169.895 436.462 169.6 437.189C169.305 437.915 169.014 438.663 168.726 439.434L166.566 438.803C166.943 437.871 167.357 436.878 167.811 435.823C168.265 434.768 168.756 433.692 169.284 432.596C169.812 431.5 170.365 430.391 170.943 429.267C171.515 428.164 172.085 427.101 172.654 426.079L174.44 426.6Z" fill="#FFFBE2"/>
<path d="M157.237 422.586C156.662 422.355 156.144 422.168 155.684 422.027C155.205 421.877 154.806 421.771 154.487 421.707L152.943 425.549C153.203 425.761 153.535 425.98 153.939 426.207C154.325 426.427 154.75 426.63 155.214 426.817C155.641 426.988 156.073 427.119 156.511 427.209C156.942 427.317 157.349 427.351 157.731 427.311C158.114 427.271 158.463 427.152 158.779 426.956C159.088 426.778 159.324 426.485 159.488 426.077C159.824 425.242 159.78 424.546 159.358 423.988C158.909 423.441 158.202 422.974 157.237 422.586ZM152.807 434.256C151.842 433.868 151.083 433.423 150.53 432.921C149.959 432.411 149.555 431.861 149.319 431.27C149.082 430.679 149.003 430.044 149.082 429.364C149.161 428.684 149.346 427.983 149.637 427.259L152.881 419.187C153.456 419.31 154.216 419.486 155.159 419.714C156.083 419.934 157.009 420.231 157.937 420.604C158.642 420.887 159.303 421.228 159.919 421.627C160.542 422.006 161.054 422.449 161.454 422.955C161.847 423.479 162.093 424.074 162.192 424.739C162.291 425.404 162.173 426.154 161.838 426.989C161.539 427.731 161.132 428.289 160.615 428.664C160.072 429.049 159.487 429.299 158.859 429.413C158.212 429.52 157.538 429.507 156.837 429.376C156.109 429.256 155.411 429.062 154.743 428.794C153.834 428.428 152.984 427.968 152.194 427.414L151.936 428.054C151.78 428.444 151.677 428.833 151.628 429.223C151.553 429.624 151.577 430.022 151.699 430.415C151.802 430.802 152.024 431.161 152.365 431.492C152.681 431.834 153.154 432.132 153.785 432.385C154.583 432.706 155.301 432.93 155.94 433.057C156.578 433.185 157.078 433.256 157.438 433.271L156.955 435.276C156.58 435.298 156.008 435.219 155.24 435.039C154.453 434.852 153.642 434.591 152.807 434.256Z" fill="#FFFBE2"/>
<path d="M143.452 414.724L137.327 426.383C135.196 426.054 133.209 425.406 131.368 424.439C130.801 424.141 130.275 423.831 129.79 423.508C129.295 423.203 128.775 422.817 128.23 422.35L129.646 420.62C130.129 421.077 130.583 421.44 131.007 421.708C131.404 421.984 131.859 422.257 132.373 422.527C133.453 423.094 134.629 423.52 135.903 423.805L141.274 413.58L143.452 414.724Z" fill="#FFFBE2"/>
<path d="M114.159 414.445C112.588 413.412 111.701 412.122 111.497 410.576C111.283 409.046 111.829 407.287 113.138 405.299L113.616 404.572L121.937 410.046C122.644 408.788 122.856 407.611 122.572 406.514C122.26 405.423 121.461 404.454 120.175 403.608C119.44 403.124 118.775 402.771 118.18 402.547C117.585 402.323 117.11 402.19 116.754 402.148L117.633 400.212C117.971 400.243 118.516 400.398 119.266 400.676C120.017 400.955 120.802 401.363 121.62 401.902C122.623 402.561 123.41 403.294 123.98 404.101C124.523 404.913 124.87 405.751 125.019 406.615C125.169 407.48 125.127 408.362 124.894 409.262C124.65 410.179 124.242 411.072 123.671 411.941C122.989 412.977 122.237 413.774 121.414 414.334C120.591 414.894 119.755 415.254 118.907 415.415C118.06 415.575 117.228 415.566 116.411 415.388C115.595 415.21 114.844 414.896 114.159 414.445ZM114.616 407.636C113.968 408.622 113.716 409.569 113.86 410.478C113.993 411.404 114.486 412.147 115.338 412.707C115.822 413.026 116.326 413.225 116.848 413.305C117.353 413.374 117.846 413.352 118.328 413.238C118.81 413.124 119.261 412.93 119.681 412.656C120.101 412.381 120.468 412.06 120.782 411.692L114.616 407.636Z" fill="#FFFBE2"/>
<path d="M80.9307 383.448C80.9463 383.83 81.0684 384.289 81.2968 384.825C81.5111 385.376 81.8241 385.856 82.2359 386.264C82.7044 386.729 83.2006 387.038 83.7245 387.192C84.2342 387.331 84.7575 387.343 85.2944 387.228C85.8173 387.127 86.3538 386.898 86.9039 386.543C87.44 386.201 87.9615 385.775 88.4686 385.264C89.6096 384.114 90.2202 382.959 90.3004 381.799C90.3807 380.639 89.9878 379.629 89.1217 378.77C88.6815 378.333 88.2912 377.988 87.9508 377.735C87.5962 377.468 87.3268 377.285 87.1425 377.187L80.9307 383.448ZM74.3174 390.114L72.2539 388.659L86.6215 374.176C87.1175 374.443 87.72 374.816 88.429 375.294C89.138 375.772 89.8901 376.405 90.6852 377.194C91.3951 377.898 91.9214 378.66 92.2641 379.479C92.6067 380.297 92.7656 381.131 92.7407 381.98C92.7017 382.843 92.4788 383.706 92.0721 384.571C91.6655 385.435 91.0677 386.265 90.2789 387.06C89.5183 387.826 88.7358 388.43 87.9314 388.872C87.0988 389.314 86.2725 389.579 85.4526 389.667C84.6327 389.755 83.8404 389.673 83.0757 389.422C82.2968 389.156 81.5738 388.692 80.9064 388.03C80.3811 387.509 79.983 386.987 79.7123 386.465C79.4415 385.943 79.2772 385.512 79.2192 385.173L74.3174 390.114Z" fill="#FFFBE2"/>
<path d="M65.8158 371.855C64.6175 370.407 64.1479 368.913 64.407 367.375C64.6507 365.85 65.6895 364.329 67.5234 362.812L68.1937 362.257L74.5421 369.932C75.588 368.937 76.136 367.874 76.1862 366.742C76.2083 365.608 75.7285 364.447 74.7469 363.26C74.186 362.582 73.654 362.049 73.151 361.661C72.6479 361.272 72.2328 361.006 71.9055 360.861L73.3133 359.268C73.6278 359.397 74.103 359.705 74.7388 360.191C75.3747 360.678 76.005 361.298 76.6296 362.054C77.3945 362.978 77.9314 363.91 78.2404 364.848C78.5213 365.784 78.6063 366.687 78.4956 367.557C78.3849 368.427 78.0861 369.258 77.5993 370.05C77.097 370.855 76.4452 371.589 75.6438 372.252C74.6883 373.042 73.735 373.584 72.7839 373.878C71.8328 374.172 70.9285 374.271 70.071 374.175C69.2135 374.08 68.4206 373.828 67.6923 373.418C66.9639 373.008 66.3385 372.487 65.8158 371.855ZM68.2512 365.48C67.3419 366.232 66.8229 367.064 66.6941 367.975C66.5499 368.899 66.8029 369.754 67.453 370.54C67.8227 370.987 68.2453 371.325 68.7208 371.555C69.1835 371.769 69.6619 371.892 70.156 371.925C70.6501 371.957 71.1381 371.904 71.6201 371.765C72.102 371.626 72.547 371.426 72.9551 371.167L68.2512 365.48Z" fill="#FFFBE2"/>
<path d="M49.5107 349.287C50.7901 348.86 52.0808 348.485 53.3829 348.163C54.6684 347.852 55.9428 347.56 57.2063 347.288C58.4532 347.027 59.6642 346.802 60.8393 346.614C62.0144 346.425 63.1203 346.259 64.1569 346.116L65.4136 347.982C64.3792 349.812 63.1347 351.795 61.6802 353.932C60.2256 356.069 58.6267 358.17 56.8833 360.236L55.3753 357.997C55.9712 357.306 56.5918 356.563 57.2371 355.766C57.8713 354.954 58.4999 354.133 59.1229 353.303C59.7458 352.474 60.344 351.661 60.9172 350.865C61.4626 350.064 61.939 349.321 62.3464 348.637C61.5592 348.757 60.6919 348.919 59.7443 349.123C58.7689 349.322 57.7742 349.546 56.7603 349.795C55.7463 350.043 54.7435 350.309 53.7519 350.591C52.7491 350.856 51.8157 351.135 50.9517 351.427L49.5107 349.287Z" fill="#FFFBE2"/>
<path d="M41.4807 336.383C40.5898 334.727 40.4222 333.171 40.9778 331.713C41.5159 330.266 42.8328 328.978 44.9286 327.85L45.6947 327.437L50.4148 336.208C51.6355 335.437 52.3814 334.502 52.6525 333.402C52.8966 332.294 52.6537 331.062 51.9239 329.706C51.5068 328.931 51.0898 328.304 50.6727 327.825C50.2556 327.345 49.9007 327.002 49.6082 326.796L51.301 325.51C51.5841 325.699 51.9897 326.094 52.5178 326.695C53.046 327.297 53.5423 328.029 54.0067 328.892C54.5754 329.949 54.9192 330.967 55.0382 331.948C55.1301 332.921 55.0365 333.823 54.7573 334.654C54.478 335.486 54.0221 336.243 53.3893 336.924C52.739 337.614 51.9559 338.206 51.0401 338.699C49.9482 339.287 48.9071 339.631 47.9169 339.733C46.9267 339.834 46.0205 339.754 45.1984 339.492C44.3762 339.231 43.6482 338.828 43.0144 338.283C42.3806 337.738 41.8693 337.105 41.4807 336.383ZM45.119 330.609C44.0799 331.168 43.4079 331.882 43.1029 332.75C42.7804 333.628 42.8608 334.516 43.3442 335.414C43.619 335.925 43.9671 336.339 44.3883 336.658C44.8 336.958 45.2449 337.173 45.7231 337.302C46.2012 337.431 46.6902 337.474 47.19 337.432C47.6899 337.391 48.1653 337.282 48.6165 337.108L45.119 330.609Z" fill="#FFFBE2"/>
<path d="M44.6127 309.217C44.9509 310.029 45.1208 310.749 45.1221 311.377C45.1235 312.004 44.968 312.567 44.6555 313.066C44.3431 313.564 43.8907 314.013 43.2982 314.411C42.6874 314.817 41.948 315.201 41.0802 315.562L28.922 320.624L30.4671 324.335L28.5285 325.142L26.0377 319.16L40.1347 313.291C40.7809 313.022 41.2918 312.766 41.6672 312.523C42.035 312.261 42.3135 311.994 42.5028 311.72C42.666 311.435 42.7399 311.145 42.7246 310.848C42.7093 310.551 42.6286 310.227 42.4825 309.876C42.2596 309.341 41.9874 308.869 41.666 308.461C41.3446 308.053 41.0562 307.751 40.8008 307.554L42.6011 306.415C42.7027 306.502 42.8419 306.628 43.0187 306.793C43.1772 306.965 43.3509 307.175 43.5401 307.421C43.7293 307.667 43.9207 307.945 44.1145 308.254C44.3006 308.545 44.4666 308.866 44.6127 309.217Z" fill="#FFFBE2"/>
<path d="M29.8431 288.89C30.8956 288.57 31.8989 288.433 32.8531 288.477C33.7823 288.508 34.6345 288.699 35.4096 289.049C36.1848 289.398 36.858 289.894 37.4293 290.536C37.9814 291.183 38.3912 291.947 38.6587 292.827C38.9204 293.688 39.0019 294.541 38.9034 295.387C38.78 296.218 38.4935 296.995 38.0439 297.717C37.5944 298.439 36.9952 299.081 36.2462 299.643C35.4724 300.192 34.5592 300.626 33.5067 300.946C32.4542 301.266 31.4538 301.413 30.5055 301.388C29.5513 301.343 28.6962 301.143 27.9402 300.788C27.165 300.438 26.5043 299.949 25.958 299.321C25.3867 298.679 24.9703 297.928 24.7086 297.066C24.4411 296.186 24.3662 295.321 24.4838 294.47C24.5823 293.624 24.8564 292.841 25.3059 292.119C25.7363 291.403 26.3384 290.771 27.1123 290.222C27.8804 289.654 28.7906 289.21 29.8431 288.89ZM30.5846 291.33C29.0728 291.789 27.9853 292.475 27.3219 293.388C26.6393 294.306 26.4667 295.32 26.804 296.43C27.1354 297.52 27.8402 298.257 28.9181 298.64C29.9711 299.01 31.2535 298.965 32.7653 298.506C34.2579 298.052 35.3483 297.376 36.0367 296.477C36.7001 295.565 36.8661 294.563 36.5346 293.473C36.1973 292.363 35.4992 291.613 34.4404 291.224C33.3624 290.841 32.0772 290.876 30.5846 291.33Z" fill="#FFFBE2"/>
<path d="M25.7397 271.078C24.1505 271.392 22.9981 272.008 22.2824 272.924C21.5471 273.844 21.2978 274.903 21.5347 276.1C21.6667 276.767 21.8009 277.291 21.9375 277.671C22.0701 278.033 22.197 278.313 22.3182 278.514L30.941 276.807C31.1416 276.482 31.2975 276.033 31.4085 275.461C31.5194 274.888 31.5186 274.318 31.406 273.749C31.2779 273.101 31.0417 272.577 30.6973 272.176C30.3491 271.756 29.93 271.441 29.4401 271.232C28.9306 271.027 28.368 270.914 27.7523 270.894C27.1169 270.877 26.446 270.938 25.7397 271.078ZM25.2447 268.576C26.2845 268.371 27.273 268.318 28.2103 268.418C29.124 268.502 29.9453 268.737 30.674 269.123C31.3989 269.489 32.0098 270 32.5066 270.656C33.0034 271.312 33.3431 272.101 33.5256 273.023C33.6692 273.749 33.7071 274.404 33.6393 274.989C33.5714 275.573 33.4567 276.024 33.2953 276.341L38.6808 275.275L39.1642 277.718L21.0653 281.3C20.8035 280.801 20.5126 280.155 20.1925 279.362C19.8686 278.55 19.5999 277.604 19.3863 276.525C19.1922 275.544 19.1823 274.618 19.3566 273.748C19.531 272.877 19.8758 272.096 20.391 271.402C20.8866 270.713 21.5448 270.124 22.3655 269.635C23.1863 269.147 24.146 268.794 25.2447 268.576Z" fill="#FFFBE2"/>
<path d="M15.9546 254.608C15.7745 252.737 16.2229 251.237 17.2998 250.109C18.3568 248.982 20.0698 248.305 22.4388 248.077L23.3048 247.994L24.2588 257.908C25.6826 257.671 26.7325 257.098 27.4086 256.189C28.0628 255.262 28.3162 254.032 28.1687 252.499C28.0844 251.623 27.9429 250.883 27.7441 250.279C27.5454 249.676 27.3511 249.222 27.1611 248.919L29.2199 248.389C29.4079 248.673 29.6288 249.194 29.8827 249.953C30.1366 250.712 30.3105 251.58 30.4043 252.555C30.5193 253.749 30.4416 254.822 30.1714 255.772C29.8793 256.704 29.4435 257.5 28.8639 258.158C28.2843 258.817 27.5709 259.338 26.7237 259.72C25.8566 260.105 24.9054 260.348 23.8702 260.447C22.6359 260.566 21.5427 260.48 20.5905 260.19C19.6383 259.9 18.8339 259.475 18.1773 258.915C17.5207 258.356 17.0057 257.702 16.6324 256.954C16.259 256.207 16.0331 255.425 15.9546 254.608ZM21.5454 250.695C20.3709 250.808 19.4748 251.206 18.8573 251.888C18.2199 252.572 17.9501 253.422 18.0478 254.437C18.1033 255.015 18.2636 255.532 18.5286 255.988C18.7916 256.425 19.1186 256.795 19.5095 257.099C19.9004 257.403 20.3344 257.633 20.8114 257.788C21.2885 257.943 21.7688 258.027 22.2523 258.041L21.5454 250.695Z" fill="#FFFBE2"/>
<path d="M29.0157 237.688L15.8459 237.622C15.1561 235.578 14.8164 233.517 14.8268 231.437C14.83 230.797 14.8631 230.187 14.926 229.607C14.9689 229.027 15.0721 228.388 15.2356 227.689L17.4233 228.15C17.2401 228.789 17.1273 229.358 17.0848 229.858C17.0224 230.338 16.9897 230.867 16.9868 231.447C16.9807 232.667 17.1445 233.908 17.4782 235.17L29.028 235.228L29.0157 237.688Z" fill="#FFFBE2"/>
<path d="M11.9348 190.35L12.3924 188.085L37.7987 193.22L37.341 195.485L11.9348 190.35Z" fill="#FFFBE2"/>
<path d="M42.6745 153.981C42.9174 153.411 43.1144 152.897 43.2656 152.44C43.4246 151.964 43.5392 151.567 43.6093 151.249L39.8001 149.628C39.5827 149.883 39.3564 150.21 39.121 150.61C38.8935 150.991 38.6818 151.412 38.4859 151.872C38.3058 152.295 38.1663 152.725 38.0676 153.161C37.9505 153.59 37.9081 153.996 37.9406 154.379C37.973 154.762 38.0842 155.114 38.2741 155.434C38.4455 155.746 38.7337 155.988 39.1385 156.16C39.9666 156.513 40.6638 156.484 41.23 156.073C41.7857 155.635 42.2672 154.938 42.6745 153.981ZM31.0976 149.314C31.5049 148.357 31.9653 147.608 32.4787 147.065C32.9999 146.505 33.5583 146.112 34.1539 145.887C34.7495 145.663 35.3862 145.597 36.064 145.69C36.7417 145.783 37.4395 145.982 38.1571 146.287L46.1621 149.695C46.0269 150.268 45.8357 151.023 45.5885 151.961C45.3492 152.881 45.0337 153.801 44.642 154.721C44.3444 155.42 43.9901 156.074 43.5793 156.681C43.1869 157.297 42.7338 157.8 42.22 158.189C41.6878 158.572 41.0883 158.805 40.4215 158.891C39.7547 158.977 39.0072 158.843 38.1791 158.491C37.443 158.178 36.8932 157.759 36.5295 157.234C36.1552 156.684 35.9174 156.093 35.8161 155.463C35.7226 154.815 35.7485 154.141 35.8939 153.442C36.0286 152.717 36.237 152.024 36.519 151.361C36.9029 150.459 37.3801 149.619 37.9507 148.84L37.3158 148.57C36.9294 148.406 36.5417 148.295 36.1529 148.238C35.7535 148.155 35.3557 148.17 34.9595 148.284C34.571 148.38 34.2078 148.595 33.8699 148.929C33.5213 149.237 33.2139 149.704 32.9476 150.33C32.6108 151.121 32.3722 151.835 32.232 152.471C32.0917 153.106 32.0102 153.604 31.9874 153.964L29.9929 153.441C29.9789 153.066 30.0694 152.496 30.2645 151.731C30.4674 150.948 30.7451 150.142 31.0976 149.314Z" fill="#FFFBE2"/>
<path d="M50.7699 140.379L39.2161 134.058C39.5812 131.932 40.2629 129.957 41.2613 128.132C41.5685 127.571 41.8876 127.05 42.2186 126.57C42.5321 126.08 42.927 125.567 43.4034 125.03L45.1086 126.475C44.6435 126.951 44.2734 127.398 43.9983 127.817C43.7153 128.21 43.4346 128.66 43.1562 129.169C42.5706 130.239 42.1246 131.409 41.8181 132.677L51.9507 138.221L50.7699 140.379Z" fill="#FFFBE2"/>
<path d="M54.0541 120.434C53.0133 119.724 52.2257 118.944 51.6911 118.095C51.1566 117.246 50.8388 116.364 50.7377 115.447C50.6366 114.531 50.7297 113.614 51.0169 112.696C51.2989 111.75 51.7386 110.84 52.336 109.964C52.7193 109.403 53.1382 108.877 53.5928 108.388C54.0421 107.872 54.5801 107.367 55.2067 106.875L56.6449 108.546C56.0746 108.956 55.6069 109.375 55.2418 109.804C54.8713 110.205 54.5283 110.637 54.2127 111.099C53.8069 111.694 53.5062 112.312 53.3107 112.954C53.0987 113.584 53.0309 114.215 53.1073 114.849C53.1785 115.454 53.4077 116.058 53.7951 116.662C54.166 117.254 54.7314 117.809 55.4913 118.327C56.2183 118.823 56.9193 119.144 57.5945 119.29C58.2532 119.425 58.8856 119.421 59.4918 119.277C60.0928 119.106 60.6619 118.805 61.1991 118.372C61.7362 117.94 62.2303 117.393 62.6812 116.732C63.0419 116.203 63.3609 115.683 63.6382 115.17C63.9103 114.629 64.1445 114.002 64.3408 113.288L66.2536 114.158C66.0738 114.883 65.8223 115.57 65.4991 116.222C65.1925 116.884 64.8024 117.562 64.329 118.256C63.6977 119.181 62.9933 119.947 62.2157 120.555C61.4329 121.134 60.602 121.536 59.7231 121.76C58.8555 121.967 57.9429 121.973 56.9853 121.78C56.0224 121.559 55.0454 121.11 54.0541 120.434Z" fill="#FFFBE2"/>
<path d="M71.7361 107.288L56.159 94.1624L57.4423 91.9876L62.8564 96.5498C62.9918 96.1408 63.19 95.7194 63.451 95.2855C63.6968 94.8387 63.9743 94.4317 64.2836 94.0647C64.9666 93.2541 65.656 92.6843 66.3518 92.3552C67.0451 91.9979 67.7413 91.8391 68.4401 91.8788C69.139 91.9184 69.8447 92.1207 70.5571 92.4857C71.2696 92.8507 71.9852 93.336 72.7041 93.9417L78.7147 99.0065L77.1295 100.888L71.5318 96.1709C70.2165 95.0625 69.1366 94.4664 68.292 94.3824C67.4321 94.2855 66.6026 94.7112 65.8036 95.6594C65.4685 96.057 65.1858 96.4857 64.9554 96.9454C64.7225 97.3769 64.5735 97.709 64.5082 97.9416L73.3406 105.384L71.7361 107.288Z" fill="#FFFBE2"/>
<path d="M76.6341 77.6341C76.2617 77.997 75.8137 78.1822 75.2903 78.1895C74.7669 78.1969 74.2889 77.9786 73.8562 77.5345C73.4235 77.0905 73.2176 76.6069 73.2385 76.0839C73.2595 75.5609 73.4561 75.1179 73.8285 74.755C74.2153 74.3781 74.6632 74.193 75.1723 74.1996C75.6957 74.1922 76.1737 74.4106 76.6064 74.8546C77.0391 75.2986 77.245 75.7822 77.2241 76.3052C77.2175 76.8143 77.0208 77.2573 76.6341 77.6341ZM79.135 81.1033L76.2558 83.9089L74.8112 82.4263L79.4522 77.904L85.4192 84.0275C86.3823 85.0158 87.1674 85.5493 87.7745 85.6279C88.3677 85.6921 88.9365 85.4591 89.4808 84.9287C89.8962 84.5239 90.2269 84.1039 90.473 83.6686C90.7334 83.2194 90.908 82.8398 90.9969 82.5298L92.7203 83.7826C92.6762 83.9093 92.6103 84.0852 92.5225 84.3104C92.4208 84.5212 92.2904 84.76 92.1314 85.0266C91.9867 85.2793 91.8063 85.5528 91.5904 85.847C91.3888 86.1273 91.1519 86.4 90.8797 86.6652C90.2494 87.2793 89.6429 87.7029 89.06 87.9357C88.4771 88.1686 87.8892 88.2388 87.2964 88.1463C86.7179 88.0398 86.1343 87.7847 85.5455 87.3811C84.9427 86.9631 84.3133 86.4175 83.6573 85.7443L79.135 81.1033Z" fill="#FFFBE2"/>
<path d="M94.8264 64.0749L99.4201 60.4045L100.712 62.0216L96.1185 65.6921L100.163 70.7545C100.6 71.3014 100.995 71.7155 101.348 71.9968C101.701 72.2782 102.051 72.4595 102.397 72.541C102.747 72.5943 103.094 72.5476 103.437 72.401C103.781 72.2544 104.156 72.0188 104.562 71.6942C105.125 71.2448 105.54 70.8359 105.809 70.4675C106.078 70.0991 106.306 69.7119 106.494 69.3059L108.086 70.7218C107.942 70.9904 107.691 71.3963 107.331 71.9395C106.987 72.4703 106.464 73.0166 105.761 73.5784C104.948 74.2276 104.209 74.6644 103.544 74.8889C102.878 75.1134 102.247 75.1568 101.651 75.019C101.07 74.8687 100.506 74.5638 99.96 74.1043C99.4012 73.6292 98.8284 73.0245 98.2416 72.2901L94.1966 67.2277L91.8998 69.0629L90.6076 67.4457L92.9045 65.6105L90.47 62.5636L92.1297 60.6999L94.8264 64.0749Z" fill="#FFFBE2"/>
<path d="M112.35 50.7721C113.927 49.7488 115.465 49.4545 116.963 49.8892C118.45 50.3071 119.841 51.5143 121.137 53.5108L121.61 54.2406L113.255 59.662C114.123 60.8156 115.116 61.4825 116.234 61.6628C117.358 61.8155 118.566 61.4727 119.858 60.6345C120.596 60.1555 121.187 59.6885 121.631 59.2336C122.075 58.7787 122.388 58.397 122.569 58.0886L123.989 59.6706C123.825 59.9681 123.464 60.4047 122.908 60.9802C122.351 61.5558 121.662 62.1103 120.84 62.6437C119.833 63.2969 118.846 63.7229 117.878 63.9217C116.917 64.0928 116.01 64.0732 115.158 63.8629C114.306 63.6526 113.515 63.26 112.785 62.6851C112.043 62.0934 111.389 61.3613 110.823 60.4889C110.148 59.4487 109.72 58.4393 109.538 57.4607C109.356 56.482 109.362 55.5723 109.555 54.7315C109.749 53.8907 110.091 53.1322 110.582 52.456C111.073 51.7797 111.662 51.2185 112.35 50.7721ZM118.402 53.9262C117.76 52.9363 116.994 52.3249 116.103 52.0919C115.202 51.8422 114.324 51.9949 113.468 52.5501C112.982 52.8658 112.597 53.2466 112.314 53.6924C112.048 54.1273 111.87 54.5883 111.781 55.0754C111.692 55.5625 111.688 56.0534 111.771 56.5481C111.853 57.0429 112 57.5079 112.211 57.9432L118.402 53.9262Z" fill="#FFFBE2"/>
<path d="M128.648 49.2034C128.07 48.0838 127.747 47.0235 127.681 46.0226C127.614 45.0216 127.754 44.094 128.101 43.2397C128.447 42.3854 128.965 41.6228 129.654 40.9519C130.352 40.254 131.171 39.6619 132.113 39.1756C132.717 38.8636 133.336 38.6006 133.968 38.3866C134.609 38.1457 135.322 37.9575 136.107 37.8221L136.578 39.9762C135.882 40.0657 135.271 40.2123 134.746 40.416C134.229 40.5926 133.722 40.8095 133.225 41.0664C132.585 41.3967 132.027 41.7976 131.55 42.2689C131.064 42.7225 130.704 43.246 130.47 43.8394C130.245 44.4059 130.159 45.0466 130.213 45.7615C130.258 46.4586 130.492 47.2159 130.914 48.0334C131.317 48.8153 131.782 49.4309 132.306 49.8803C132.822 50.3119 133.38 50.6087 133.982 50.7708C134.592 50.906 135.236 50.911 135.914 50.7859C136.592 50.6608 137.287 50.4147 137.998 50.0477C138.566 49.754 139.094 49.4475 139.582 49.1281C140.079 48.7817 140.583 48.3413 141.095 47.8069L142.364 49.4809C141.862 50.0331 141.313 50.5188 140.719 50.938C140.135 51.375 139.469 51.7862 138.723 52.1716C137.728 52.6855 136.744 53.0248 135.771 53.1895C134.807 53.3273 133.885 53.2857 133.005 53.0645C132.144 52.8342 131.337 52.4064 130.587 51.7811C129.845 51.1288 129.199 50.2696 128.648 49.2034Z" fill="#FFFBE2"/>
<path d="M150.106 31.2176L155.572 29.0508L156.335 30.9751L150.869 33.1419L153.257 39.1659C153.515 39.8166 153.771 40.3281 154.026 40.7003C154.281 41.0725 154.563 41.3482 154.87 41.5274C155.189 41.6807 155.535 41.7374 155.906 41.6977C156.278 41.658 156.705 41.5424 157.188 41.3508C157.858 41.0854 158.375 40.8159 158.74 40.5422C159.105 40.2685 159.436 39.965 159.734 39.6317L160.843 41.4513C160.627 41.666 160.267 41.9806 159.765 42.395C159.28 42.802 158.62 43.1713 157.783 43.503C156.817 43.8862 155.982 44.0879 155.28 44.108C154.578 44.1281 153.962 43.985 153.432 43.6789C152.92 43.3653 152.471 42.9089 152.083 42.3098C151.687 41.6921 151.316 40.9463 150.97 40.0724L148.582 34.0484L145.849 35.1318L145.086 33.2075L147.819 32.1241L146.382 28.4986L148.514 27.2016L150.106 31.2176Z" fill="#FFFBE2"/>
<path d="M189.271 12.2452L191.546 11.8435L196.053 37.3686L193.779 37.7703L189.271 12.2452Z" fill="#FFFBE2"/>
</svg>
