<svg width="4479" height="431" viewBox="0 0 4479 431" fill="none" xmlns="http://www.w3.org/2000/svg">
<path d="M2963.12 249.438C2973.58 249.596 2974.5 240.5 2986 239C2996 239 3000.5 239.5 3006 242.5C3011.89 245.712 3052.25 279.851 3047.54 311.313L3046.94 315.25C3045.56 324.449 3044.09 333.625 3042.44 342.78C3042.07 344.83 3041.71 346.88 3041.34 348.931C3040.62 353.001 3039.9 357.072 3039.13 361.135C3037.33 370.762 3035.81 380.216 3035.65 390.029L3035.64 392.926C3035.61 403.657 3037.41 414.054 3044.12 422.75C3049.53 426.98 3054.28 429.981 3061.29 430.348C3072.54 430.553 3082.29 429.283 3090.91 421.211C3097.07 413.549 3099.48 404.445 3099.6 394.757L3099.55 391.375C3099.44 376.414 3097.32 361.934 3094.84 347.215C3093.77 340.894 3092.74 334.566 3091.71 328.237L3091.38 326.188L3090.97 323.677C3088.74 310.017 3086.48 296.154 3086.98 282.285L3087.12 279.75C3089.18 241.438 3101.32 187.118 3130.92 159.797L3133 158C3137.06 154.39 3141.15 151.113 3145.81 148.305C3164.21 138.569 3185.25 136.732 3205.25 142.699L3209 144C3234.56 155.036 3234.56 155.036 3258.06 170.125C3264.48 174.243 3271.15 177.771 3277.94 181.25C3286.05 185.34 3295.22 189.224 3301.06 196.438C3305.5 204.552 3303.51 214.783 3301.31 223.312C3299.64 229.425 3298.19 235.542 3296.93 241.757L3296.25 245.188C3294.44 253.861 3293.47 262.126 3294 271C3295.35 280.682 3299.72 289.189 3307.38 295.371C3314.61 299.867 3322.36 301.737 3330.78 300.555C3339.1 298.475 3345.73 293.501 3350.38 286.312C3356.35 275.366 3357.7 263.303 3354.24 251.371L3353.31 248.438C3352.31 245.18 3351.31 241.93 3350.23 238.701L3350.22 238.683C3347.27 229.949 3344.43 221.558 3344.5 212.25C3345.29 194.769 3354.12 178.947 3366.78 167.023L3369 165C3372.48 161.725 3375.98 158.473 3379.55 155.29L3381 154C3394.1 142.331 3411.07 132.214 3428.95 131.463C3444.77 131.29 3455.05 138.22 3466.31 148.812C3474.95 156.932 3484.17 166.129 3496 169C3514.86 172.34 3529.05 163.422 3544.25 153.375C3555.23 146.102 3565.95 139.858 3579 137C3598.22 134.651 3614.67 145.584 3629.81 155.875C3646.82 167.432 3663.45 177.163 3684.2 179.75C3714.34 181.731 3735.99 169.618 3758.2 150.574C3768.81 141.461 3780.34 131.944 3794.79 130.664C3814.52 130.46 3827.99 141.931 3841.67 154.949C3848.13 161.11 3854.64 166.783 3862.38 171.312C3874.07 177.332 3887.82 179.189 3900.63 175.738L3903 175C3918.13 170.477 3931.73 162.707 3945.16 154.541C3951.44 150.715 3957.77 146.968 3964.16 143.319C3983.05 132.697 4003.35 124.034 4025.21 130.086C4036.38 133.741 4044.7 140.888 4050.23 151.312C4062.38 179.524 4054.42 209.924 4045.25 237.65C4037.2 261.938 4030.01 284.016 4032 310C4034.31 323.317 4041.66 335.739 4052.74 343.562L4055 345C4059.23 347.719 4062.71 348.906 4067.76 349.273C4078.19 349.486 4086.19 348.251 4094.15 341.055C4105.63 328.758 4110.11 314.481 4110.41 297.931L4110.44 294.312C4110.59 277.715 4107.57 261.6 4103.84 245.49C4102.84 241.231 4101.87 236.969 4100.89 232.705L4100.3 230.078L4099.86 228.186C4098.29 221.295 4096.72 214.404 4095.23 207.494L4094.44 203.812C4092.29 194.263 4090.55 184.564 4092.7 174.851C4094.69 168.077 4098.02 163.735 4104 160C4109.92 156.977 4115.56 156.205 4122 158C4125.55 159.891 4127.39 162.238 4129.31 165.688C4133.03 174.655 4132 187.039 4128.98 196.031C4124.27 209.277 4119.54 223.377 4119.5 237.562C4119.96 249.891 4122.62 260.163 4131.75 268.75C4140.37 275.748 4147.97 276.865 4159 276C4167.32 273.226 4173.85 268.361 4178.3 260.785C4186.06 246.299 4186.89 231.184 4182.57 215.382C4182.18 213.994 4181.8 212.605 4181.42 211.215C4180.8 208.955 4180.18 206.696 4179.56 204.438C4175.94 191.37 4170.72 176.585 4174 163C4175.45 158.709 4177.7 155.838 4181.62 153.562C4187.55 150.971 4194.87 151.063 4201 153C4211 157.082 4216.43 162.712 4220.94 172.438C4223.85 178.759 4226.71 183.18 4232.17 187.591L4234 189C4240.96 194.666 4250.91 197.774 4259.89 197.25L4262 197L4264.2 196.75C4278.73 194.316 4278.73 194.316 4296.06 170.875C4299.76 165.875 4303.4 161.054 4307.96 156.789L4310 155C4312.65 152.651 4315.33 150.377 4318.1 148.172C4330.19 139.125 4344.08 133.344 4359.44 135.312L4362 136C4365.12 136.779 4368.05 137.729 4371 139C4388.75 148.867 4395.52 167.392 4401.33 185.723C4408.31 207.884 4415.96 230.682 4436.71 243.645L4439 245C4443.92 248.084 4448.14 249.229 4453.99 249.415L4456.12 249.438C4466.58 249.596 4467.5 240.5 4479 239V0H0V239C10 239 14.5 239.5 20 242.5C25.8891 245.712 66.2519 279.851 61.5398 311.313L60.9375 315.25C59.5553 324.449 58.0878 333.625 56.4418 342.78C56.0725 344.83 55.7055 346.88 55.3406 348.931L55.188 349.789C54.5156 353.574 53.8433 357.358 53.1342 361.135C51.3273 370.762 49.8137 380.216 49.6525 390.029L49.6445 392.926C49.6104 403.657 51.4051 414.054 58.125 422.75C63.5301 426.98 68.2785 429.981 75.2891 430.348C86.5441 430.553 96.2919 429.283 104.91 421.211C111.074 413.549 113.484 404.445 113.6 394.757L113.555 391.375C113.44 376.414 111.323 361.934 108.837 347.215C107.766 340.894 106.739 334.566 105.715 328.237L105.383 326.188C103.03 311.717 100.447 297.004 100.975 282.285L101.125 279.75C103.181 241.438 115.32 187.118 144.918 159.797L147 158C151.058 154.39 155.154 151.113 159.812 148.305C178.208 138.569 199.253 136.732 219.246 142.699L223 144C248.556 155.036 248.556 155.036 272.062 170.125C278.482 174.243 285.153 177.771 291.938 181.25C300.055 185.34 309.221 189.224 315.062 196.438C319.497 204.552 317.51 214.783 315.312 223.312C313.636 229.425 312.185 235.542 310.93 241.757L310.25 245.188C308.443 253.861 307.474 262.126 308 271C309.346 280.682 313.716 289.189 321.383 295.371C328.607 299.867 336.363 301.737 344.781 300.555C353.101 298.475 359.733 293.501 364.375 286.312C370.355 275.366 371.695 263.303 368.238 251.371L367.312 248.438C366.314 245.18 365.313 241.93 364.226 238.701L364.22 238.683C361.266 229.95 358.428 221.558 358.5 212.25C359.287 194.769 368.124 178.947 380.777 167.023L383 165C386.483 161.725 389.98 158.473 393.548 155.29L395 154C408.101 142.331 425.072 132.214 442.952 131.463C458.77 131.29 469.046 138.22 480.312 148.812C488.945 156.932 498.167 166.129 510 169C528.862 172.34 543.053 163.422 558.25 153.375C569.235 146.102 579.953 139.858 593 137C612.216 134.651 628.67 145.584 643.812 155.875C660.815 167.432 677.452 177.163 698.195 179.75C728.343 181.731 749.988 169.618 772.198 150.574C782.809 141.461 794.339 131.944 808.793 130.664C828.519 130.46 841.993 141.931 855.666 154.949C862.131 161.11 868.638 166.783 876.375 171.312C888.07 177.332 901.816 179.189 914.633 175.738L917 175C932.129 170.477 945.729 162.707 959.158 154.541C965.444 150.715 971.773 146.968 978.163 143.319C997.053 132.697 1017.35 124.034 1039.21 130.086C1050.38 133.741 1058.7 140.888 1064.23 151.312C1076.38 179.524 1068.42 209.924 1059.25 237.65C1051.2 261.938 1044.01 284.016 1046 310C1048.31 323.317 1055.66 335.739 1066.74 343.562L1069 345C1073.23 347.719 1076.71 348.906 1081.76 349.273C1092.19 349.486 1100.19 348.251 1108.15 341.055C1119.63 328.758 1124.11 314.481 1124.41 297.931L1124.44 294.312C1124.59 277.715 1121.57 261.6 1117.84 245.49C1116.84 241.231 1115.87 236.969 1114.89 232.705L1114.3 230.078L1113.87 228.21C1112.29 221.311 1110.72 214.412 1109.23 207.494L1108.44 203.812C1106.29 194.263 1104.55 184.564 1106.7 174.851C1108.69 168.077 1112.02 163.735 1118 160C1123.92 156.977 1129.56 156.205 1136 158C1139.55 159.891 1141.39 162.238 1143.31 165.688C1147.03 174.655 1146 187.039 1142.98 196.031C1138.27 209.277 1133.54 223.377 1133.5 237.562C1133.96 249.891 1136.62 260.163 1145.75 268.75C1154.37 275.748 1161.97 276.865 1173 276C1181.32 273.226 1187.85 268.361 1192.3 260.785C1200.06 246.299 1200.89 231.184 1196.57 215.382C1196.18 213.994 1195.8 212.605 1195.42 211.215C1194.8 208.955 1194.18 206.696 1193.56 204.438C1189.94 191.37 1184.72 176.585 1188 163C1189.45 158.709 1191.7 155.838 1195.62 153.562C1201.55 150.971 1208.87 151.063 1215 153C1225 157.082 1230.43 162.712 1234.94 172.438C1237.85 178.759 1240.71 183.18 1246.17 187.591L1248 189C1254.96 194.666 1264.91 197.774 1273.89 197.25L1276 197L1278.2 196.75C1292.73 194.316 1292.73 194.316 1310.06 170.875C1313.76 165.875 1317.4 161.054 1321.96 156.789L1324 155C1326.65 152.651 1329.33 150.377 1332.1 148.172C1344.19 139.125 1358.08 133.344 1373.44 135.312L1376 136C1379.12 136.779 1382.05 137.729 1385 139C1402.75 148.867 1409.52 167.392 1415.33 185.723C1422.31 207.884 1429.96 230.682 1450.71 243.645L1453 245C1457.92 248.084 1462.14 249.229 1467.99 249.415L1470.12 249.438C1480.58 249.596 1481.5 240.5 1493 239C1503 239 1507.5 239.5 1513 242.5C1518.89 245.712 1559.25 279.851 1554.54 311.313L1553.94 315.25C1552.56 324.449 1551.09 333.625 1549.44 342.78C1549.07 344.83 1548.71 346.88 1548.34 348.931L1548.18 349.817C1547.51 353.592 1546.84 357.367 1546.13 361.135C1544.33 370.762 1542.81 380.216 1542.65 390.029L1542.64 392.926C1542.61 403.657 1544.41 414.054 1551.12 422.75C1556.53 426.98 1561.28 429.981 1568.29 430.348C1579.54 430.553 1589.29 429.283 1597.91 421.211C1604.07 413.549 1606.48 404.445 1606.6 394.757L1606.55 391.375C1606.44 376.414 1604.32 361.934 1601.84 347.215C1600.77 340.894 1599.74 334.566 1598.71 328.237L1598.38 326.188C1596.03 311.717 1593.45 297.004 1593.98 282.285L1594.12 279.75C1596.18 241.438 1608.32 187.118 1637.92 159.797L1640 158C1644.06 154.39 1648.15 151.113 1652.81 148.305C1671.21 138.569 1692.25 136.732 1712.25 142.699L1716 144C1741.56 155.036 1741.56 155.036 1765.06 170.125C1771.48 174.243 1778.15 177.771 1784.94 181.25C1793.05 185.34 1802.22 189.224 1808.06 196.438C1812.5 204.552 1810.51 214.783 1808.31 223.312C1806.64 229.425 1805.19 235.542 1803.93 241.757L1803.25 245.188C1801.44 253.861 1800.47 262.126 1801 271C1802.35 280.682 1806.72 289.189 1814.38 295.371C1821.61 299.867 1829.36 301.737 1837.78 300.555C1846.1 298.475 1852.73 293.501 1857.38 286.312C1863.35 275.366 1864.7 263.303 1861.24 251.371L1860.31 248.438C1859.31 245.18 1858.31 241.93 1857.23 238.701L1857.22 238.684C1854.27 229.95 1851.43 221.559 1851.5 212.25C1852.29 194.769 1861.12 178.947 1873.78 167.023L1876 165C1879.48 161.725 1882.98 158.473 1886.55 155.29L1888 154C1901.1 142.331 1918.07 132.214 1935.95 131.463C1951.77 131.29 1962.05 138.22 1973.31 148.812C1981.95 156.932 1991.17 166.129 2003 169C2021.86 172.34 2036.05 163.422 2051.25 153.375C2062.23 146.102 2072.95 139.858 2086 137C2105.22 134.651 2121.67 145.584 2136.81 155.875C2153.82 167.432 2170.45 177.163 2191.2 179.75C2221.34 181.731 2242.99 169.618 2265.2 150.574C2275.81 141.461 2287.34 131.944 2301.79 130.664C2321.52 130.46 2334.99 141.931 2348.67 154.949C2355.13 161.11 2361.64 166.783 2369.38 171.312C2381.07 177.332 2394.82 179.189 2407.63 175.738L2410 175C2425.13 170.477 2438.73 162.707 2452.16 154.541C2458.44 150.715 2464.77 146.968 2471.16 143.319C2490.05 132.697 2510.35 124.034 2532.21 130.086C2543.38 133.741 2551.7 140.888 2557.23 151.312C2569.38 179.524 2561.42 209.924 2552.25 237.65C2544.2 261.938 2537.01 284.016 2539 310C2541.31 323.317 2548.66 335.739 2559.74 343.562L2562 345C2566.23 347.719 2569.71 348.906 2574.76 349.273C2585.19 349.486 2593.19 348.251 2601.15 341.055C2612.63 328.758 2617.11 314.481 2617.41 297.931L2617.44 294.312C2617.59 277.715 2614.57 261.6 2610.84 245.49C2609.84 241.231 2608.86 236.969 2607.89 232.705L2607.3 230.078L2606.86 228.186C2605.29 221.295 2603.72 214.404 2602.23 207.494L2601.44 203.812C2599.29 194.263 2597.55 184.564 2599.7 174.851C2601.69 168.077 2605.02 163.735 2611 160C2616.92 156.977 2622.56 156.205 2629 158C2632.55 159.891 2634.39 162.238 2636.31 165.688C2640.03 174.655 2639 187.039 2635.98 196.031C2631.27 209.277 2626.54 223.377 2626.5 237.562C2626.96 249.891 2629.62 260.163 2638.75 268.75C2647.37 275.748 2654.97 276.865 2666 276C2674.32 273.226 2680.85 268.361 2685.3 260.785C2693.06 246.299 2693.89 231.184 2689.57 215.382C2689.18 213.994 2688.8 212.605 2688.42 211.215C2687.8 208.955 2687.18 206.696 2686.56 204.438C2682.94 191.37 2677.72 176.585 2681 163C2682.45 158.709 2684.7 155.838 2688.62 153.562C2694.55 150.971 2701.87 151.063 2708 153C2718 157.082 2723.43 162.712 2727.94 172.438C2730.85 178.759 2733.71 183.18 2739.17 187.591L2741 189C2747.96 194.666 2757.91 197.774 2766.89 197.25L2769 197L2771.2 196.75C2785.73 194.316 2785.73 194.316 2803.06 170.875C2806.76 165.875 2810.4 161.054 2814.96 156.789L2817 155C2819.65 152.651 2822.33 150.377 2825.1 148.172C2837.19 139.125 2851.08 133.344 2866.44 135.312L2869 136C2872.12 136.779 2875.05 137.729 2878 139C2895.75 148.867 2902.52 167.392 2908.33 185.723C2915.31 207.884 2922.96 230.682 2943.71 243.645L2946 245C2950.92 248.084 2955.14 249.229 2960.99 249.415L2963.12 249.438Z" fill="#1D32BF"/>
</svg>
