<svg width="4578" height="431" viewBox="0 0 4578 431" fill="none" xmlns="http://www.w3.org/2000/svg">
<path d="M3022.62 249.438C3033.08 249.596 3034 240.5 3045.5 239C3055.5 239 3060 239.5 3065.5 242.5C3071.39 245.712 3111.75 279.851 3107.04 311.313L3106.44 315.25C3105.06 324.449 3103.59 333.625 3101.94 342.78C3101.57 344.83 3101.21 346.88 3100.84 348.931L3100.69 349.76C3100.02 353.554 3099.34 357.348 3098.63 361.135C3096.83 370.762 3095.31 380.216 3095.15 390.029L3095.14 392.926C3095.11 403.657 3096.9 414.054 3103.62 422.75C3109.03 426.98 3113.78 429.981 3120.79 430.348C3132.04 430.553 3141.79 429.283 3150.41 421.211C3156.57 413.549 3158.98 404.445 3159.1 394.757L3159.05 391.375C3158.94 376.414 3156.82 361.934 3154.34 347.215C3153.27 340.894 3152.24 334.566 3151.21 328.237L3150.88 326.188C3148.53 311.717 3145.95 297.004 3146.47 282.285L3146.62 279.75C3148.68 241.438 3160.82 187.118 3190.42 159.797L3192.5 158C3196.56 154.39 3200.65 151.113 3205.31 148.305C3223.71 138.569 3244.75 136.732 3264.75 142.699L3268.5 144C3294.06 155.036 3294.06 155.036 3317.56 170.125C3323.98 174.243 3330.65 177.771 3337.44 181.25C3345.55 185.34 3354.72 189.224 3360.56 196.438C3365 204.552 3363.01 214.783 3360.81 223.313C3359.14 229.425 3357.69 235.542 3356.43 241.757L3355.75 245.188C3353.94 253.861 3352.97 262.126 3353.5 271C3354.85 280.682 3359.22 289.189 3366.88 295.371C3374.11 299.867 3381.86 301.737 3390.28 300.555C3398.6 298.475 3405.23 293.501 3409.87 286.312C3415.85 275.366 3417.2 263.303 3413.74 251.371L3412.81 248.438C3411.81 245.18 3410.81 241.93 3409.73 238.701L3409.72 238.683C3406.77 229.949 3403.93 221.558 3404 212.25C3404.79 194.769 3413.62 178.947 3426.28 167.023L3428.5 165C3431.98 161.725 3435.48 158.473 3439.05 155.29L3440.5 154C3453.6 142.331 3470.57 132.214 3488.45 131.463C3504.27 131.29 3514.55 138.22 3525.81 148.812C3534.44 156.932 3543.67 166.129 3555.5 169C3574.36 172.34 3588.55 163.422 3603.75 153.375C3614.73 146.102 3625.45 139.858 3638.5 137C3657.72 134.651 3674.17 145.584 3689.31 155.875C3706.31 167.432 3722.95 177.163 3743.7 179.75C3773.84 181.731 3795.49 169.618 3817.7 150.574C3828.31 141.461 3839.84 131.944 3854.29 130.664C3874.02 130.46 3887.49 141.931 3901.17 154.949C3907.63 161.11 3914.14 166.783 3921.87 171.312C3933.57 177.332 3947.32 179.189 3960.13 175.738L3962.5 175C3977.63 170.477 3991.23 162.707 4004.66 154.541C4010.94 150.715 4017.27 146.968 4023.66 143.319C4042.55 132.697 4062.85 124.034 4084.71 130.086C4095.88 133.741 4104.2 140.888 4109.73 151.312C4121.88 179.524 4113.92 209.924 4104.75 237.65C4096.7 261.938 4089.51 284.016 4091.5 310C4093.81 323.317 4101.16 335.739 4112.24 343.562L4114.5 345C4118.73 347.719 4122.21 348.906 4127.26 349.273C4137.69 349.486 4145.69 348.251 4153.65 341.055C4165.13 328.758 4169.6 314.481 4169.91 297.931L4169.94 294.312C4170.09 277.715 4167.07 261.6 4163.34 245.49C4162.34 241.231 4161.36 236.969 4160.39 232.705L4159.79 230.078L4159.35 228.112C4157.78 221.246 4156.21 214.379 4154.73 207.494L4153.94 203.812C4151.79 194.263 4150.05 184.564 4152.19 174.851C4154.19 168.077 4157.51 163.735 4163.5 160C4169.42 156.977 4175.06 156.205 4181.5 158C4185.04 159.891 4186.89 162.238 4188.81 165.688C4192.52 174.655 4191.5 187.039 4188.48 196.031C4183.77 209.277 4179.04 223.377 4179 237.563C4179.46 249.891 4182.12 260.163 4191.25 268.75C4199.86 275.748 4207.46 276.865 4218.5 276C4226.82 273.226 4233.35 268.361 4237.8 260.785C4245.56 246.299 4246.39 231.184 4242.06 215.382C4241.68 213.994 4241.29 212.605 4240.92 211.215C4240.3 208.955 4239.68 206.696 4239.06 204.438C4235.44 191.37 4230.22 176.585 4233.5 163C4234.95 158.709 4237.2 155.838 4241.12 153.562C4247.05 150.971 4254.36 151.063 4260.5 153C4270.5 157.082 4275.93 162.712 4280.44 172.438C4283.35 178.759 4286.21 183.18 4291.66 187.591L4293.5 189C4300.46 194.666 4310.4 197.774 4319.39 197.25L4321.5 197L4323.7 196.75C4338.22 194.316 4338.22 194.316 4355.56 170.875C4359.26 165.875 4362.9 161.054 4367.46 156.789L4369.5 155C4372.15 152.651 4374.82 150.377 4377.6 148.172C4389.68 139.125 4403.58 133.344 4418.94 135.312L4421.5 136C4424.61 136.779 4427.54 137.729 4430.5 139C4448.25 148.867 4455.02 167.392 4460.82 185.723C4467.8 207.884 4475.46 230.682 4496.21 243.645L4498.5 245C4503.42 248.084 4507.64 249.229 4513.49 249.415L4515.62 249.438C4526.08 249.596 4529.01 241.533 4538.5 239C4553.21 235.07 4577.5 239 4577.5 239L4573.5 0H4538.5H59.4998H0V239C0 239 36.4575 236.005 59.4998 239C67.3628 240.022 73 242 78.5 245C84.3891 248.212 125.752 279.851 121.04 311.313L120.437 315.25C119.055 324.449 117.588 333.625 115.941 342.78C115.572 344.83 115.205 346.88 114.84 348.931L114.688 349.789C114.015 353.574 113.343 357.358 112.634 361.135C110.827 370.762 109.313 380.216 109.152 390.029L109.144 392.926C109.11 403.657 110.905 414.054 117.625 422.75C123.03 426.98 127.778 429.981 134.789 430.348C146.044 430.553 155.792 429.283 164.41 421.211C170.574 413.549 172.984 404.445 173.1 394.757L173.054 391.375C172.94 376.414 170.823 361.934 168.337 347.215C167.266 340.894 166.239 334.566 165.214 328.237L164.883 326.188C162.53 311.717 159.947 297.004 160.475 282.285L160.625 279.75C162.681 241.438 174.82 187.118 204.418 159.797L206.5 158C210.557 154.39 214.654 151.113 219.312 148.305C237.708 138.569 258.753 136.732 278.746 142.699L282.5 144C308.056 155.036 308.056 155.036 331.562 170.125L331.562 170.125C337.982 174.243 344.653 177.771 351.437 181.25C359.554 185.34 368.721 189.224 374.562 196.438C378.997 204.552 377.01 214.783 374.812 223.313C373.135 229.425 371.685 235.542 370.43 241.757L369.75 245.188C367.943 253.861 366.973 262.126 367.5 271C368.845 280.682 373.216 289.189 380.882 295.371C388.107 299.867 395.862 301.737 404.281 300.555C412.6 298.475 419.233 293.501 423.875 286.312C429.854 275.366 431.195 263.303 427.738 251.371L426.812 248.438C425.814 245.18 424.813 241.93 423.726 238.701L423.72 238.683C420.766 229.95 417.928 221.558 418 212.25C418.787 194.769 427.624 178.947 440.277 167.023L442.5 165C445.983 161.725 449.48 158.473 453.048 155.29L454.5 154C467.601 142.331 484.571 132.214 502.451 131.463C518.269 131.29 528.546 138.22 539.812 148.812C548.445 156.932 557.667 166.129 569.5 169C588.362 172.34 602.553 163.422 617.75 153.375C628.735 146.102 639.453 139.858 652.5 137C671.716 134.651 688.17 145.584 703.312 155.875C720.315 167.432 736.952 177.163 757.695 179.75C787.843 181.731 809.488 169.618 831.698 150.574C842.308 141.461 853.838 131.944 868.293 130.664C888.019 130.46 901.492 141.931 915.165 154.949C921.631 161.11 928.137 166.783 935.875 171.312C947.57 177.332 961.315 179.189 974.133 175.738L976.5 175C991.629 170.477 1005.23 162.707 1018.66 154.541C1024.94 150.715 1031.27 146.968 1037.66 143.319C1056.55 132.697 1076.85 124.034 1098.71 130.086C1109.88 133.741 1118.2 140.888 1123.73 151.312C1135.88 179.524 1127.92 209.924 1118.75 237.65C1110.7 261.938 1103.51 284.016 1105.5 310C1107.81 323.317 1115.16 335.739 1126.24 343.562L1128.5 345C1132.73 347.719 1136.21 348.906 1141.26 349.273C1151.69 349.486 1159.69 348.251 1167.65 341.055C1179.13 328.758 1183.61 314.481 1183.91 297.931L1183.94 294.312C1184.09 277.715 1181.07 261.6 1177.34 245.49C1176.34 241.231 1175.37 236.969 1174.39 232.705L1173.8 230.078L1173.37 228.21C1171.79 221.311 1170.22 214.412 1168.73 207.494L1167.94 203.812C1165.79 194.263 1164.05 184.564 1166.2 174.851C1168.19 168.077 1171.52 163.735 1177.5 160C1183.42 156.977 1189.06 156.205 1195.5 158C1199.05 159.891 1200.89 162.238 1202.81 165.688C1206.53 174.655 1205.5 187.039 1202.48 196.031C1197.77 209.277 1193.04 223.377 1193 237.563C1193.46 249.891 1196.12 260.163 1205.25 268.75C1213.87 275.748 1221.47 276.865 1232.5 276C1240.82 273.226 1247.35 268.361 1251.8 260.785C1259.56 246.299 1260.39 231.184 1256.07 215.382C1255.68 213.994 1255.3 212.605 1254.92 211.215C1254.3 208.955 1253.68 206.696 1253.06 204.438C1249.44 191.37 1244.22 176.585 1247.5 163C1248.95 158.709 1251.2 155.838 1255.12 153.562C1261.05 150.971 1268.37 151.063 1274.5 153C1284.5 157.082 1289.93 162.712 1294.44 172.438C1297.35 178.759 1300.21 183.18 1305.67 187.591L1307.5 189C1314.46 194.666 1324.41 197.774 1333.39 197.25L1335.5 197L1337.7 196.75C1352.23 194.316 1352.23 194.316 1369.56 170.875C1373.26 165.875 1376.9 161.054 1381.46 156.789L1383.5 155C1386.15 152.651 1388.83 150.377 1391.6 148.172C1403.69 139.125 1417.58 133.344 1432.94 135.312L1435.5 136C1438.62 136.779 1441.55 137.729 1444.5 139C1462.25 148.867 1469.02 167.392 1474.83 185.723C1481.81 207.884 1489.46 230.682 1510.21 243.645L1512.5 245C1517.42 248.084 1521.64 249.229 1527.49 249.415L1529.62 249.438C1540.08 249.596 1541 240.5 1552.5 239C1562.5 239 1567 239.5 1572.5 242.5C1578.39 245.712 1618.75 279.851 1614.04 311.313L1613.44 315.25C1612.06 324.449 1610.59 333.625 1608.94 342.78C1608.57 344.83 1608.21 346.88 1607.84 348.931L1607.68 349.817C1607.01 353.592 1606.34 357.367 1605.63 361.135C1603.83 370.762 1602.31 380.216 1602.15 390.029L1602.14 392.926C1602.11 403.657 1603.91 414.054 1610.62 422.75C1616.03 426.98 1620.78 429.981 1627.79 430.348C1639.04 430.553 1648.79 429.283 1657.41 421.211C1663.57 413.549 1665.98 404.445 1666.1 394.757L1666.05 391.375C1665.94 376.414 1663.82 361.934 1661.34 347.215C1660.27 340.894 1659.24 334.566 1658.21 328.237L1657.88 326.188C1655.53 311.717 1652.95 297.004 1653.48 282.285L1653.62 279.75C1655.68 241.438 1667.82 187.118 1697.42 159.797L1699.5 158C1703.56 154.39 1707.65 151.113 1712.31 148.305C1730.71 138.569 1751.75 136.732 1771.75 142.699L1775.5 144C1801.06 155.036 1801.06 155.036 1824.56 170.125C1830.98 174.243 1837.65 177.771 1844.44 181.25C1852.55 185.34 1861.72 189.224 1867.56 196.438C1872 204.552 1870.01 214.783 1867.81 223.313C1866.14 229.425 1864.69 235.542 1863.43 241.757L1862.75 245.188C1860.94 253.861 1859.97 262.126 1860.5 271C1861.85 280.682 1866.22 289.189 1873.88 295.371C1881.11 299.867 1888.86 301.737 1897.28 300.555C1905.6 298.475 1912.23 293.501 1916.88 286.312C1922.85 275.366 1924.2 263.303 1920.74 251.371L1919.81 248.438C1918.81 245.18 1917.81 241.93 1916.73 238.701L1916.72 238.684C1913.77 229.95 1910.93 221.559 1911 212.25C1911.79 194.769 1920.62 178.947 1933.28 167.023L1935.5 165C1938.98 161.725 1942.48 158.473 1946.05 155.29L1947.5 154C1960.6 142.331 1977.57 132.214 1995.45 131.463C2011.27 131.29 2021.55 138.22 2032.81 148.812C2041.45 156.932 2050.67 166.129 2062.5 169C2081.36 172.34 2095.55 163.422 2110.75 153.375C2121.73 146.102 2132.45 139.858 2145.5 137C2164.72 134.651 2181.17 145.584 2196.31 155.875C2213.31 167.432 2229.95 177.163 2250.7 179.75C2280.84 181.731 2302.49 169.618 2324.7 150.574C2335.31 141.461 2346.84 131.944 2361.29 130.664C2381.02 130.46 2394.49 141.931 2408.17 154.949C2414.63 161.11 2421.14 166.783 2428.87 171.312C2440.57 177.332 2454.32 179.189 2467.13 175.738L2469.5 175C2484.63 170.477 2498.23 162.707 2511.66 154.541C2517.94 150.715 2524.27 146.968 2530.66 143.319C2549.55 132.697 2569.85 124.034 2591.71 130.086C2602.88 133.741 2611.2 140.888 2616.73 151.312C2628.88 179.524 2620.92 209.924 2611.75 237.65C2603.7 261.938 2596.51 284.016 2598.5 310C2600.81 323.317 2608.16 335.739 2619.24 343.562L2621.5 345C2625.73 347.719 2629.21 348.906 2634.26 349.273C2644.69 349.486 2652.69 348.251 2660.65 341.055C2672.13 328.758 2676.61 314.481 2676.91 297.931L2676.94 294.312C2677.09 277.715 2674.07 261.6 2670.34 245.49C2669.34 241.231 2668.36 236.969 2667.39 232.705L2666.8 230.078L2666.38 228.234C2664.8 221.327 2663.22 214.42 2661.73 207.494L2660.94 203.812C2658.79 194.263 2657.05 184.564 2659.2 174.851C2661.19 168.077 2664.52 163.735 2670.5 160C2676.42 156.977 2682.06 156.205 2688.5 158C2692.05 159.891 2693.89 162.238 2695.81 165.688C2699.52 174.655 2698.5 187.039 2695.48 196.031C2690.77 209.277 2686.04 223.377 2686 237.563C2686.46 249.891 2689.12 260.163 2698.25 268.75C2706.87 275.748 2714.47 276.865 2725.5 276C2733.82 273.226 2740.35 268.361 2744.8 260.785C2752.56 246.299 2753.39 231.184 2749.07 215.382C2748.68 213.994 2748.3 212.605 2747.92 211.215C2747.3 208.955 2746.68 206.696 2746.06 204.438C2742.44 191.37 2737.22 176.585 2740.5 163C2741.95 158.709 2744.2 155.838 2748.12 153.562C2754.05 150.971 2761.36 151.063 2767.5 153C2777.5 157.082 2782.93 162.712 2787.44 172.438C2790.35 178.759 2793.21 183.18 2798.67 187.591L2800.5 189C2807.46 194.666 2817.41 197.774 2826.39 197.25L2828.5 197L2830.7 196.75C2845.23 194.316 2845.23 194.316 2862.56 170.875C2866.26 165.875 2869.9 161.054 2874.46 156.789L2876.5 155C2879.15 152.651 2881.83 150.377 2884.6 148.172C2896.69 139.125 2910.58 133.344 2925.94 135.312L2928.5 136C2931.62 136.779 2934.55 137.729 2937.5 139C2955.25 148.867 2962.02 167.392 2967.83 185.723C2974.81 207.884 2982.46 230.682 3003.21 243.645L3005.5 245C3010.42 248.084 3014.64 249.229 3020.49 249.415L3022.62 249.438Z" fill="#FFFBE2"/>
</svg>
