{
	"asset":{
		"generator":"Khronos glTF Blender I/O v5.1.18",
		"version":"2.0"
	},
	"extensionsUsed":[
		"KHR_materials_emissive_strength",
		"KHR_materials_unlit"
	],
	"scene":0,
	"scenes":[
		{
			"name":"Scene",
			"nodes":[
				0
			]
		}
	],
	"nodes":[
		{
			"mesh":0,
			"name":"Arcade",
			"rotation":[
				0.5,
				0.5,
				-0.4999999403953552,
				0.5000000596046448
			]
		}
	],
	"materials":[
		{
			"doubleSided":true,
			"name":"Material.001",
			"pbrMetallicRoughness":{
				"baseColorTexture":{
					"index":0
				},
				"metallicFactor":0,
				"roughnessFactor":0.6954545378684998
			}
		},
		{
			"doubleSided":true,
			"emissiveFactor":[
				0.000209168647415936,
				0.8446570038795471,
				1
			],
			"extensions":{
				"KHR_materials_emissive_strength":{
					"emissiveStrength":4.199999809265137
				}
			},
			"name":"Glow",
			"pbrMetallicRoughness":{
				"baseColorFactor":[
					0.800000011920929,
					0.800000011920929,
					0.800000011920929,
					1
				],
				"metallicFactor":0,
				"roughnessFactor":0.5
			}
		},
		{
			"doubleSided":true,
			"extensions":{
				"KHR_materials_unlit":{}
			},
			"name":"DarkWhite",
			"pbrMetallicRoughness":{
				"baseColorFactor":[
					0.5542160272598267,
					0.5542160272598267,
					0.5542160272598267,
					1
				],
				"metallicFactor":0,
				"roughnessFactor":0.9
			}
		},
		{
			"doubleSided":true,
			"name":"OrangeStick",
			"pbrMetallicRoughness":{
				"baseColorTexture":{
					"index":1
				},
				"metallicFactor":0,
				"roughnessFactor":0.5
			}
		},
		{
			"doubleSided":true,
			"name":"BlueStick",
			"pbrMetallicRoughness":{
				"baseColorTexture":{
					"index":2
				},
				"metallicFactor":0,
				"roughnessFactor":0.5
			}
		}
	],
	"meshes":[
		{
			"name":"Plane",
			"primitives":[
				{
					"attributes":{
						"POSITION":0,
						"NORMAL":1,
						"TEXCOORD_0":2
					},
					"indices":3,
					"material":0
				},
				{
					"attributes":{
						"POSITION":4,
						"NORMAL":5,
						"TEXCOORD_0":6
					},
					"indices":7,
					"material":1
				},
				{
					"attributes":{
						"POSITION":8,
						"NORMAL":9,
						"TEXCOORD_0":10
					},
					"indices":11,
					"material":2
				},
				{
					"attributes":{
						"POSITION":12,
						"NORMAL":13,
						"TEXCOORD_0":14
					},
					"indices":15,
					"material":3
				},
				{
					"attributes":{
						"POSITION":16,
						"NORMAL":17,
						"TEXCOORD_0":18
					},
					"indices":15,
					"material":4
				}
			]
		}
	],
	"textures":[
		{
			"sampler":0,
			"source":0
		},
		{
			"sampler":0,
			"source":1
		},
		{
			"sampler":0,
			"source":1
		}
	],
	"images":[
		{
			"mimeType":"image/png",
			"name":"AracdeColorMap",
			"uri":"AracdeColorMap.png"
		},
		{
			"mimeType":"image/png",
			"name":"buttons and stick texture",
			"uri":"buttons%20and%20stick%20texture.png"
		}
	],
	"accessors":[
		{
			"bufferView":0,
			"componentType":5126,
			"count":612,
			"max":[
				1.0126969814300537,
				0.43129801750183105,
				2.759769301974302e-09
			],
			"min":[
				0.08848676085472107,
				-0.431298166513443,
				-1.320799469947815
			],
			"type":"VEC3"
		},
		{
			"bufferView":1,
			"componentType":5126,
			"count":612,
			"type":"VEC3"
		},
		{
			"bufferView":2,
			"componentType":5126,
			"count":612,
			"type":"VEC2"
		},
		{
			"bufferView":3,
			"componentType":5123,
			"count":2172,
			"type":"SCALAR"
		},
		{
			"bufferView":4,
			"componentType":5126,
			"count":1264,
			"max":[
				0.5185369849205017,
				0.29627352952957153,
				-1.105307698249817
			],
			"min":[
				0.42937394976615906,
				-0.28284192085266113,
				-1.2517367601394653
			],
			"type":"VEC3"
		},
		{
			"bufferView":5,
			"componentType":5126,
			"count":1264,
			"type":"VEC3"
		},
		{
			"bufferView":6,
			"componentType":5126,
			"count":1264,
			"type":"VEC2"
		},
		{
			"bufferView":7,
			"componentType":5123,
			"count":3744,
			"type":"SCALAR"
		},
		{
			"bufferView":8,
			"componentType":5126,
			"count":1264,
			"max":[
				0.5185369849205017,
				0.29627352952957153,
				-1.105307698249817
			],
			"min":[
				0.42937394976615906,
				-0.28284192085266113,
				-1.2517367601394653
			],
			"type":"VEC3"
		},
		{
			"bufferView":9,
			"componentType":5126,
			"count":1264,
			"type":"VEC3"
		},
		{
			"bufferView":10,
			"componentType":5126,
			"count":1264,
			"type":"VEC2"
		},
		{
			"bufferView":11,
			"componentType":5123,
			"count":3792,
			"type":"SCALAR"
		},
		{
			"bufferView":12,
			"componentType":5126,
			"count":1107,
			"max":[
				0.3527039885520935,
				0.3153468370437622,
				-0.33028116822242737
			],
			"min":[
				0.2195468544960022,
				0.0911172479391098,
				-0.47921714186668396
			],
			"type":"VEC3"
		},
		{
			"bufferView":13,
			"componentType":5126,
			"count":1107,
			"type":"VEC3"
		},
		{
			"bufferView":14,
			"componentType":5126,
			"count":1107,
			"type":"VEC2"
		},
		{
			"bufferView":15,
			"componentType":5123,
			"count":5856,
			"type":"SCALAR"
		},
		{
			"bufferView":16,
			"componentType":5126,
			"count":1107,
			"max":[
				0.3527039587497711,
				-0.10158739984035492,
				-0.33028119802474976
			],
			"min":[
				0.2195468246936798,
				-0.3258169889450073,
				-0.47921717166900635
			],
			"type":"VEC3"
		},
		{
			"bufferView":17,
			"componentType":5126,
			"count":1107,
			"type":"VEC3"
		},
		{
			"bufferView":18,
			"componentType":5126,
			"count":1107,
			"type":"VEC2"
		}
	],
	"bufferViews":[
		{
			"buffer":0,
			"byteLength":7344,
			"byteOffset":0,
			"target":34962
		},
		{
			"buffer":0,
			"byteLength":7344,
			"byteOffset":7344,
			"target":34962
		},
		{
			"buffer":0,
			"byteLength":4896,
			"byteOffset":14688,
			"target":34962
		},
		{
			"buffer":0,
			"byteLength":4344,
			"byteOffset":19584,
			"target":34963
		},
		{
			"buffer":0,
			"byteLength":15168,
			"byteOffset":23928,
			"target":34962
		},
		{
			"buffer":0,
			"byteLength":15168,
			"byteOffset":39096,
			"target":34962
		},
		{
			"buffer":0,
			"byteLength":10112,
			"byteOffset":54264,
			"target":34962
		},
		{
			"buffer":0,
			"byteLength":7488,
			"byteOffset":64376,
			"target":34963
		},
		{
			"buffer":0,
			"byteLength":15168,
			"byteOffset":71864,
			"target":34962
		},
		{
			"buffer":0,
			"byteLength":15168,
			"byteOffset":87032,
			"target":34962
		},
		{
			"buffer":0,
			"byteLength":10112,
			"byteOffset":102200,
			"target":34962
		},
		{
			"buffer":0,
			"byteLength":7584,
			"byteOffset":112312,
			"target":34963
		},
		{
			"buffer":0,
			"byteLength":13284,
			"byteOffset":119896,
			"target":34962
		},
		{
			"buffer":0,
			"byteLength":13284,
			"byteOffset":133180,
			"target":34962
		},
		{
			"buffer":0,
			"byteLength":8856,
			"byteOffset":146464,
			"target":34962
		},
		{
			"buffer":0,
			"byteLength":11712,
			"byteOffset":155320,
			"target":34963
		},
		{
			"buffer":0,
			"byteLength":13284,
			"byteOffset":167032,
			"target":34962
		},
		{
			"buffer":0,
			"byteLength":13284,
			"byteOffset":180316,
			"target":34962
		},
		{
			"buffer":0,
			"byteLength":8856,
			"byteOffset":193600,
			"target":34962
		}
	],
	"samplers":[
		{
			"magFilter":9729,
			"minFilter":9987
		}
	],
	"buffers":[
		{
			"byteLength":202456,
			"uri":"Arcade.bin"
		}
	]
}
