{
	"asset":{
		"generator":"Khronos glTF Blender I/O v5.1.18",
		"version":"2.0"
	},
	"scene":0,
	"scenes":[
		{
			"name":"Scene",
			"nodes":[
				0,
				1
			]
		}
	],
	"nodes":[
		{
			"mesh":0,
			"name":"Screen",
			"translation":[
				0,
				0,
				-0.18300274014472961
			]
		},
		{
			"mesh":1,
			"name":"Monitor"
		}
	],
	"materials":[
		{
			"doubleSided":true,
			"name":"Material.002",
			"pbrMetallicRoughness":{
				"baseColorFactor":[
					0.006995411589741707,
					0.005605394020676613,
					0.0047769551165401936,
					1
				],
				"metallicFactor":0,
				"roughnessFactor":0.5
			}
		},
		{
			"doubleSided":true,
			"name":"VhsColor",
			"pbrMetallicRoughness":{
				"baseColorFactor":[
					0.33716365694999695,
					0.327778160572052,
					0.3005438446998596,
					1
				],
				"metallicFactor":0,
				"roughnessFactor":0.5
			}
		},
		{
			"doubleSided":true,
			"name":"ButtonHolder",
			"pbrMetallicRoughness":{
				"baseColorFactor":[
					0.26225072145462036,
					0.06480327993631363,
					0.05612850934267044,
					1
				],
				"metallicFactor":0,
				"roughnessFactor":0.5
			}
		}
	],
	"meshes":[
		{
			"name":"Cube.008",
			"primitives":[
				{
					"attributes":{
						"POSITION":0,
						"NORMAL":1,
						"TEXCOORD_0":2
					},
					"indices":3,
					"material":0
				}
			]
		},
		{
			"name":"Cube.009",
			"primitives":[
				{
					"attributes":{
						"POSITION":4,
						"NORMAL":5,
						"TEXCOORD_0":6
					},
					"indices":7,
					"material":1
				},
				{
					"attributes":{
						"POSITION":8,
						"NORMAL":9,
						"TEXCOORD_0":10
					},
					"indices":11,
					"material":0
				},
				{
					"attributes":{
						"POSITION":12,
						"NORMAL":13,
						"TEXCOORD_0":14
					},
					"indices":15,
					"material":2
				}
			]
		}
	],
	"accessors":[
		{
			"bufferView":0,
			"componentType":5126,
			"count":195,
			"max":[
				0.1659141182899475,
				0.1401335746049881,
				0.4071144163608551
			],
			"min":[
				-0.1659141182899475,
				-0.1401335746049881,
				0.3578011095523834
			],
			"type":"VEC3"
		},
		{
			"bufferView":1,
			"componentType":5126,
			"count":195,
			"type":"VEC3"
		},
		{
			"bufferView":2,
			"componentType":5126,
			"count":195,
			"type":"VEC2"
		},
		{
			"bufferView":3,
			"componentType":5123,
			"count":1008,
			"type":"SCALAR"
		},
		{
			"bufferView":4,
			"componentType":5126,
			"count":1307,
			"max":[
				0.20310549437999725,
				0.17421945929527283,
				0.21758857369422913
			],
			"min":[
				-0.20310549437999725,
				-0.2754173278808594,
				-0.15024107694625854
			],
			"type":"VEC3"
		},
		{
			"bufferView":5,
			"componentType":5126,
			"count":1307,
			"type":"VEC3"
		},
		{
			"bufferView":6,
			"componentType":5126,
			"count":1307,
			"type":"VEC2"
		},
		{
			"bufferView":7,
			"componentType":5123,
			"count":5640,
			"type":"SCALAR"
		},
		{
			"bufferView":8,
			"componentType":5126,
			"count":3508,
			"max":[
				0.1803545206785202,
				-0.188643217086792,
				0.223114475607872
			],
			"min":[
				-0.17492300271987915,
				-0.2554928958415985,
				0.21410800516605377
			],
			"type":"VEC3"
		},
		{
			"bufferView":9,
			"componentType":5126,
			"count":3508,
			"type":"VEC3"
		},
		{
			"bufferView":10,
			"componentType":5126,
			"count":3508,
			"type":"VEC2"
		},
		{
			"bufferView":11,
			"componentType":5123,
			"count":6066,
			"type":"SCALAR"
		},
		{
			"bufferView":12,
			"componentType":5126,
			"count":170,
			"max":[
				-0.10734044015407562,
				-0.18580225110054016,
				0.21979008615016937
			],
			"min":[
				-0.1777639538049698,
				-0.20473432540893555,
				0.2156265676021576
			],
			"type":"VEC3"
		},
		{
			"bufferView":13,
			"componentType":5126,
			"count":170,
			"type":"VEC3"
		},
		{
			"bufferView":14,
			"componentType":5126,
			"count":170,
			"type":"VEC2"
		},
		{
			"bufferView":15,
			"componentType":5123,
			"count":396,
			"type":"SCALAR"
		}
	],
	"bufferViews":[
		{
			"buffer":0,
			"byteLength":2340,
			"byteOffset":0,
			"target":34962
		},
		{
			"buffer":0,
			"byteLength":2340,
			"byteOffset":2340,
			"target":34962
		},
		{
			"buffer":0,
			"byteLength":1560,
			"byteOffset":4680,
			"target":34962
		},
		{
			"buffer":0,
			"byteLength":2016,
			"byteOffset":6240,
			"target":34963
		},
		{
			"buffer":0,
			"byteLength":15684,
			"byteOffset":8256,
			"target":34962
		},
		{
			"buffer":0,
			"byteLength":15684,
			"byteOffset":23940,
			"target":34962
		},
		{
			"buffer":0,
			"byteLength":10456,
			"byteOffset":39624,
			"target":34962
		},
		{
			"buffer":0,
			"byteLength":11280,
			"byteOffset":50080,
			"target":34963
		},
		{
			"buffer":0,
			"byteLength":42096,
			"byteOffset":61360,
			"target":34962
		},
		{
			"buffer":0,
			"byteLength":42096,
			"byteOffset":103456,
			"target":34962
		},
		{
			"buffer":0,
			"byteLength":28064,
			"byteOffset":145552,
			"target":34962
		},
		{
			"buffer":0,
			"byteLength":12132,
			"byteOffset":173616,
			"target":34963
		},
		{
			"buffer":0,
			"byteLength":2040,
			"byteOffset":185748,
			"target":34962
		},
		{
			"buffer":0,
			"byteLength":2040,
			"byteOffset":187788,
			"target":34962
		},
		{
			"buffer":0,
			"byteLength":1360,
			"byteOffset":189828,
			"target":34962
		},
		{
			"buffer":0,
			"byteLength":792,
			"byteOffset":191188,
			"target":34963
		}
	],
	"buffers":[
		{
			"byteLength":191980,
			"uri":"VhsMonitor.bin"
		}
	]
}
